<svg width="1200" height="1000" viewBox="0 0 1200 1000" fill="none" xmlns="http://www.w3.org/2000/svg">
<path d="M1058 849V283C1058 283 1048.75 124 936.5 124C824.25 124 815.5 283 815.5 283V726C815.5 726 815.5 849 694.75 849C574 849 574 726 574 726V283C574 283 574 124 513.5 124C413.5 124 345 220.5 345 220.5M345 220.5V849M345 220.5C345 220.5 353 124 245 124C137 124 143 283 143 283V849" stroke="white" stroke-width="20" stroke-linecap="round" stroke-linejoin="round" stroke-dasharray="40 40"/>
<circle cx="143" cy="853" r="40" fill="#1FA5F4"/>
<path d="M146.442 838.909V868H142.919V842.602H142.749L135.646 847.318V843.739L142.919 838.909H146.442Z" fill="white"/>
<circle cx="347" cy="853" r="40" fill="#1FA5F4"/>
<path d="M337.402 868V865.443L347.004 854.932C348.131 853.701 349.059 852.631 349.788 851.722C350.518 850.803 351.057 849.941 351.408 849.136C351.768 848.322 351.947 847.47 351.947 846.58C351.947 845.557 351.701 844.671 351.209 843.923C350.726 843.175 350.063 842.598 349.22 842.19C348.377 841.783 347.43 841.58 346.379 841.58C345.262 841.58 344.286 841.812 343.453 842.276C342.629 842.73 341.99 843.369 341.536 844.193C341.09 845.017 340.868 845.983 340.868 847.091H337.516C337.516 845.386 337.909 843.89 338.695 842.602C339.481 841.314 340.551 840.311 341.905 839.591C343.268 838.871 344.798 838.511 346.493 838.511C348.197 838.511 349.708 838.871 351.024 839.591C352.34 840.311 353.373 841.281 354.121 842.503C354.869 843.724 355.243 845.083 355.243 846.58C355.243 847.65 355.049 848.696 354.661 849.719C354.282 850.732 353.619 851.864 352.672 853.114C351.734 854.354 350.432 855.869 348.766 857.659L342.232 864.648V864.875H355.754V868H337.402Z" fill="white"/>
<circle cx="1058" cy="853" r="40" fill="#1FA5F4"/>
<path d="M1057.11 868.398C1055.23 868.398 1053.56 868.076 1052.09 867.432C1050.63 866.788 1049.47 865.893 1048.61 864.747C1047.76 863.592 1047.3 862.252 1047.22 860.727H1050.8C1050.88 861.665 1051.2 862.474 1051.77 863.156C1052.33 863.829 1053.08 864.349 1054 864.719C1054.91 865.088 1055.93 865.273 1057.05 865.273C1058.3 865.273 1059.41 865.055 1060.37 864.619C1061.34 864.184 1062.1 863.578 1062.65 862.801C1063.2 862.025 1063.47 861.125 1063.47 860.102C1063.47 859.032 1063.21 858.09 1062.67 857.276C1062.14 856.452 1061.37 855.808 1060.35 855.344C1059.32 854.88 1058.07 854.648 1056.6 854.648H1054.27V851.523H1056.6C1057.75 851.523 1058.76 851.314 1059.63 850.898C1060.52 850.481 1061.2 849.894 1061.69 849.136C1062.2 848.379 1062.45 847.489 1062.45 846.466C1062.45 845.481 1062.23 844.624 1061.79 843.895C1061.36 843.166 1060.74 842.598 1059.95 842.19C1059.16 841.783 1058.23 841.58 1057.16 841.58C1056.16 841.58 1055.21 841.764 1054.32 842.134C1053.44 842.493 1052.72 843.019 1052.16 843.71C1051.6 844.392 1051.3 845.216 1051.25 846.182H1047.85C1047.9 844.657 1048.36 843.322 1049.22 842.176C1050.08 841.021 1051.21 840.121 1052.6 839.477C1054.01 838.833 1055.54 838.511 1057.22 838.511C1059.02 838.511 1060.56 838.876 1061.85 839.605C1063.14 840.325 1064.13 841.277 1064.82 842.46C1065.51 843.644 1065.86 844.922 1065.86 846.295C1065.86 847.934 1065.43 849.33 1064.56 850.486C1063.71 851.641 1062.55 852.441 1061.08 852.886V853.114C1062.92 853.417 1064.36 854.198 1065.39 855.457C1066.42 856.707 1066.94 858.256 1066.94 860.102C1066.94 861.684 1066.51 863.104 1065.64 864.364C1064.79 865.614 1063.63 866.598 1062.15 867.318C1060.67 868.038 1058.99 868.398 1057.11 868.398Z" fill="white"/>
</svg>
