<svg width="1523" height="1036" viewBox="0 0 1523 1036" fill="none" xmlns="http://www.w3.org/2000/svg">
<path d="M1226.55 578.898C1199.86 569.458 1174.47 564.738 1150.38 564.738C1102.21 564.738 1053.7 584.595 1004.88 624.309C902.661 725.871 825.188 809.53 772.453 875.285C778.312 874.634 820.793 864.868 899.895 845.988C971.835 828.736 1026.68 818.807 1064.45 816.203C1073.89 815.552 1083.33 815.227 1092.77 815.227C1144.52 815.227 1189.45 827.596 1227.53 852.336C1256.18 870.891 1291.66 905.07 1333.98 954.875L1242.18 954.387C1205.72 917.277 1160.8 898.723 1107.41 898.723C1098.62 898.723 1085.6 899.374 1068.35 900.676C1051.1 902.303 1038.08 903.117 1029.29 903.117C987.622 903.117 923.983 911.581 838.371 928.508C747.876 946.411 684.074 956.177 646.965 957.805C756.991 820.109 873.202 694.784 995.598 581.828C1065.91 517.049 1145.01 484.66 1232.9 484.66C1257.64 484.66 1282.06 488.892 1306.14 497.355L1226.55 578.898Z" fill="white"/>
<path d="M182 295C172.667 304.333 161.333 309 148 309C134.667 309 123.333 304.333 114 295C104.667 285 100 273.333 100 260C100 246 104.667 234.333 114 225C123.333 215.667 134.667 211 148 211C161.333 211 172.667 215.667 182 225C192 234.333 197 246 197 260C197 273.333 192 285 182 295ZM473.016 295C463.682 304.333 452.349 309 439.016 309C425.682 309 414.349 304.333 405.016 295C395.682 285 391.016 273.333 391.016 260C391.016 246 395.682 234.333 405.016 225C414.349 215.667 425.682 211 439.016 211C452.349 211 463.682 215.667 473.016 225C483.016 234.333 488.016 246 488.016 260C488.016 273.333 483.016 285 473.016 295ZM764.031 295C754.698 304.333 743.365 309 730.031 309C716.698 309 705.365 304.333 696.031 295C686.698 285 682.031 273.333 682.031 260C682.031 246 686.698 234.333 696.031 225C705.365 215.667 716.698 211 730.031 211C743.365 211 754.698 215.667 764.031 225C774.031 234.333 779.031 246 779.031 260C779.031 273.333 774.031 285 764.031 295Z" fill="white"/>
</svg>
