<svg width="1523" height="1036" viewBox="0 0 1523 1036" fill="none" xmlns="http://www.w3.org/2000/svg">
<path d="M703.117 955.363V619.426C703.117 581.34 717.115 550.904 745.109 528.117C771.151 507.284 803.703 496.867 842.766 496.867C891.268 496.867 915.52 520.467 915.52 567.668V921.672C976.392 921.672 1014.48 908.651 1029.78 882.609C1028.48 881.958 1023.59 881.633 1015.13 881.633H1005.36C985.832 881.633 971.021 881.145 960.93 880.168L985.832 865.52H1068.84C1056.14 888.632 1036.12 908.977 1008.78 926.555C980.461 945.109 953.605 954.387 928.215 954.387H832.512V607.707C832.512 558.879 819.654 534.465 793.938 534.465C776.034 534.465 760.409 546.184 747.062 569.621C735.344 590.129 729.484 609.986 729.484 629.191V955.363H703.117ZM1243.64 566.691C1243.64 537.72 1231.93 523.234 1208.49 523.234C1183.42 523.234 1170.89 537.72 1170.89 566.691V633.098H1137.69V566.691C1137.69 539.348 1126.95 525.676 1105.46 525.676C1083.65 525.676 1072.75 539.348 1072.75 566.691V633.098H1048.33V566.691C1048.33 549.764 1055.17 534.139 1068.84 519.816C1082.19 505.819 1097.32 498.82 1114.25 498.82C1126.62 498.82 1136.06 502.238 1142.57 509.074C1146.8 514.608 1150.87 520.142 1154.78 525.676C1174.63 507.772 1200.84 498.82 1233.39 498.82H1247.55L1262.69 498.332C1309.89 498.332 1333.49 524.374 1333.49 576.457V956.34H1243.64V566.691Z" fill="white"/>
<path d="M182 295C172.667 304.333 161.333 309 148 309C134.667 309 123.333 304.333 114 295C104.667 285 100 273.333 100 260C100 246 104.667 234.333 114 225C123.333 215.667 134.667 211 148 211C161.333 211 172.667 215.667 182 225C192 234.333 197 246 197 260C197 273.333 192 285 182 295ZM473.016 295C463.682 304.333 452.349 309 439.016 309C425.682 309 414.349 304.333 405.016 295C395.682 285 391.016 273.333 391.016 260C391.016 246 395.682 234.333 405.016 225C414.349 215.667 425.682 211 439.016 211C452.349 211 463.682 215.667 473.016 225C483.016 234.333 488.016 246 488.016 260C488.016 273.333 483.016 285 473.016 295ZM764.031 295C754.698 304.333 743.365 309 730.031 309C716.698 309 705.365 304.333 696.031 295C686.698 285 682.031 273.333 682.031 260C682.031 246 686.698 234.333 696.031 225C705.365 215.667 716.698 211 730.031 211C743.365 211 754.698 215.667 764.031 225C774.031 234.333 779.031 246 779.031 260C779.031 273.333 774.031 285 764.031 295Z" fill="white"/>
</svg>
