<svg width="1200" height="1000" viewBox="0 0 1200 1000" fill="none" xmlns="http://www.w3.org/2000/svg">
<path d="M152 808.908V231.531C152 231.531 152.001 137 243.749 137C335.498 137 335.963 231.531 335.963 231.531V808.908H455.053C455.053 808.908 481.177 808.908 539.853 768.593C571.883 746.586 591.288 715.304 591.288 715.304H529.195M826.224 200.947C826.224 200.947 951.801 137 999.067 137C1046.33 137 1049.58 200.947 1049.58 200.947V808.908M826.224 200.947V808.908M826.224 200.947C826.224 200.947 826.224 137 746.985 137C667.747 137 664.966 200.947 664.966 200.947M664.966 200.947V276.015M664.966 200.947C664.966 200.947 664.966 137 606.58 137C548.657 137 548.657 200.947 548.657 200.947V276.015" stroke="white" stroke-width="20" stroke-linecap="round" stroke-linejoin="round" stroke-dasharray="40 40"/>
<circle cx="152" cy="823" r="40" fill="#1FA5F4"/>
<path d="M155.442 808.909V838H151.919V812.602H151.749L144.646 817.318V813.739L151.919 808.909H155.442Z" fill="white"/>
<circle cx="488" cy="712" r="40" fill="#1FA5F4"/>
<path d="M478.402 727V724.443L488.004 713.932C489.131 712.701 490.059 711.631 490.788 710.722C491.518 709.803 492.057 708.941 492.408 708.136C492.768 707.322 492.947 706.47 492.947 705.58C492.947 704.557 492.701 703.671 492.209 702.923C491.726 702.175 491.063 701.598 490.22 701.19C489.377 700.783 488.43 700.58 487.379 700.58C486.262 700.58 485.286 700.812 484.453 701.276C483.629 701.73 482.99 702.369 482.536 703.193C482.09 704.017 481.868 704.983 481.868 706.091H478.516C478.516 704.386 478.909 702.89 479.695 701.602C480.481 700.314 481.551 699.311 482.905 698.591C484.268 697.871 485.798 697.511 487.493 697.511C489.197 697.511 490.708 697.871 492.024 698.591C493.34 699.311 494.373 700.281 495.121 701.503C495.869 702.724 496.243 704.083 496.243 705.58C496.243 706.65 496.049 707.696 495.661 708.719C495.282 709.732 494.619 710.864 493.672 712.114C492.734 713.354 491.432 714.869 489.766 716.659L483.232 723.648V723.875H496.754V727H478.402Z" fill="white"/>
<circle cx="553" cy="297" r="40" fill="#1FA5F4"/>
<path d="M552.107 312.398C550.232 312.398 548.56 312.076 547.092 311.432C545.634 310.788 544.474 309.893 543.612 308.747C542.76 307.592 542.296 306.252 542.22 304.727H545.8C545.875 305.665 546.197 306.474 546.766 307.156C547.334 307.829 548.077 308.349 548.996 308.719C549.914 309.088 550.932 309.273 552.05 309.273C553.3 309.273 554.408 309.055 555.374 308.619C556.339 308.184 557.097 307.578 557.646 306.801C558.196 306.025 558.47 305.125 558.47 304.102C558.47 303.032 558.205 302.09 557.675 301.276C557.144 300.452 556.368 299.808 555.345 299.344C554.322 298.88 553.072 298.648 551.595 298.648H549.266V295.523H551.595C552.75 295.523 553.764 295.314 554.635 294.898C555.516 294.481 556.202 293.894 556.695 293.136C557.196 292.379 557.447 291.489 557.447 290.466C557.447 289.481 557.23 288.624 556.794 287.895C556.358 287.166 555.743 286.598 554.947 286.19C554.161 285.783 553.233 285.58 552.163 285.58C551.16 285.58 550.213 285.764 549.322 286.134C548.442 286.493 547.722 287.019 547.163 287.71C546.605 288.392 546.302 289.216 546.254 290.182H542.845C542.902 288.657 543.361 287.322 544.223 286.176C545.085 285.021 546.212 284.121 547.604 283.477C549.005 282.833 550.544 282.511 552.22 282.511C554.019 282.511 555.563 282.876 556.851 283.605C558.139 284.325 559.128 285.277 559.82 286.46C560.511 287.644 560.857 288.922 560.857 290.295C560.857 291.934 560.426 293.33 559.564 294.486C558.712 295.641 557.552 296.441 556.084 296.886V297.114C557.921 297.417 559.356 298.198 560.388 299.457C561.42 300.707 561.936 302.256 561.936 304.102C561.936 305.684 561.505 307.104 560.643 308.364C559.791 309.614 558.626 310.598 557.149 311.318C555.672 312.038 553.991 312.398 552.107 312.398Z" fill="white"/>
<circle cx="827" cy="823" r="40" fill="#1FA5F4"/>
<path d="M815.498 832.034V829.136L828.282 808.909H830.384V813.398H828.963L819.304 828.682V828.909H836.52V832.034H815.498ZM829.191 838V831.153V829.804V808.909H832.543V838H829.191Z" fill="white"/>
<circle cx="1049" cy="823" r="40" fill="#1FA5F4"/>
<path d="M1048.43 838.398C1046.77 838.398 1045.27 838.066 1043.93 837.403C1042.6 836.741 1041.53 835.831 1040.72 834.676C1039.92 833.521 1039.48 832.205 1039.4 830.727H1042.81C1042.94 832.044 1043.54 833.133 1044.6 833.994C1045.67 834.847 1046.95 835.273 1048.43 835.273C1049.63 835.273 1050.69 834.993 1051.62 834.435C1052.55 833.876 1053.29 833.109 1053.82 832.134C1054.36 831.149 1054.63 830.036 1054.63 828.795C1054.63 827.527 1054.35 826.395 1053.79 825.401C1053.24 824.397 1052.48 823.606 1051.52 823.028C1050.55 822.451 1049.45 822.157 1048.21 822.148C1047.32 822.138 1046.4 822.276 1045.47 822.56C1044.53 822.834 1043.76 823.189 1043.15 823.625L1039.85 823.227L1041.62 808.909H1056.73V812.034H1044.57L1043.55 820.614H1043.72C1044.31 820.14 1045.06 819.747 1045.96 819.435C1046.86 819.122 1047.8 818.966 1048.78 818.966C1050.56 818.966 1052.14 819.392 1053.53 820.244C1054.94 821.087 1056.03 822.242 1056.83 823.71C1057.63 825.178 1058.04 826.854 1058.04 828.739C1058.04 830.595 1057.62 832.252 1056.79 833.71C1055.96 835.159 1054.83 836.305 1053.38 837.148C1051.93 837.981 1050.28 838.398 1048.43 838.398Z" fill="white"/>
</svg>
