<svg width="1200" height="1000" viewBox="0 0 1200 1000" fill="none" xmlns="http://www.w3.org/2000/svg">
<path d="M146 843V263.001C146 263.001 145.5 118 275.5 118C405.5 118 405.5 263.001 405.5 263.001C405.5 263.001 405.5 681.499 405.5 768C405.5 854.501 512.5 854.501 512.5 854.501H814C814 854.501 718 814.501 718 768C718 721.499 719.4 336.501 718 263.001C716.6 189.501 820 138.001 820 138.001C820 138.001 861.5 118 964.5 118C1067.5 118 1074.5 118 1074.5 118" stroke="white" stroke-opacity="0.5" stroke-width="100" stroke-linecap="round" stroke-linejoin="round"/>
<path d="M1074.5 118L896.49 334.75L718.48 551.501L1034 841.001" stroke="white" stroke-width="20" stroke-linecap="round" stroke-linejoin="round" stroke-dasharray="40 40"/>
<circle cx="1055" cy="855" r="40" fill="#1FA5F4"/>
<path d="M1043.5 864.034V861.136L1056.28 840.909H1058.38V845.398H1056.96L1047.3 860.682V860.909H1064.52V864.034H1043.5ZM1057.19 870V863.153V861.804V840.909H1060.54V870H1057.19Z" fill="white"/>
<circle cx="1081" cy="118" r="40" fill="#1FA5F4"/>
<path d="M1080.11 133.398C1078.23 133.398 1076.56 133.076 1075.09 132.432C1073.63 131.788 1072.47 130.893 1071.61 129.747C1070.76 128.592 1070.3 127.252 1070.22 125.727H1073.8C1073.88 126.665 1074.2 127.474 1074.77 128.156C1075.33 128.829 1076.08 129.349 1077 129.719C1077.91 130.088 1078.93 130.273 1080.05 130.273C1081.3 130.273 1082.41 130.055 1083.37 129.619C1084.34 129.184 1085.1 128.578 1085.65 127.801C1086.2 127.025 1086.47 126.125 1086.47 125.102C1086.47 124.032 1086.21 123.09 1085.67 122.276C1085.14 121.452 1084.37 120.808 1083.35 120.344C1082.32 119.88 1081.07 119.648 1079.6 119.648H1077.27V116.523H1079.6C1080.75 116.523 1081.76 116.314 1082.63 115.898C1083.52 115.481 1084.2 114.894 1084.69 114.136C1085.2 113.379 1085.45 112.489 1085.45 111.466C1085.45 110.481 1085.23 109.624 1084.79 108.895C1084.36 108.166 1083.74 107.598 1082.95 107.19C1082.16 106.783 1081.23 106.58 1080.16 106.58C1079.16 106.58 1078.21 106.764 1077.32 107.134C1076.44 107.493 1075.72 108.019 1075.16 108.71C1074.6 109.392 1074.3 110.216 1074.25 111.182H1070.85C1070.9 109.657 1071.36 108.322 1072.22 107.176C1073.08 106.021 1074.21 105.121 1075.6 104.477C1077.01 103.833 1078.54 103.511 1080.22 103.511C1082.02 103.511 1083.56 103.876 1084.85 104.605C1086.14 105.325 1087.13 106.277 1087.82 107.46C1088.51 108.644 1088.86 109.922 1088.86 111.295C1088.86 112.934 1088.43 114.33 1087.56 115.486C1086.71 116.641 1085.55 117.441 1084.08 117.886V118.114C1085.92 118.417 1087.36 119.198 1088.39 120.457C1089.42 121.707 1089.94 123.256 1089.94 125.102C1089.94 126.684 1089.51 128.104 1088.64 129.364C1087.79 130.614 1086.63 131.598 1085.15 132.318C1083.67 133.038 1081.99 133.398 1080.11 133.398Z" fill="white"/>
</svg>
