<svg width="1200" height="1000" viewBox="0 0 1200 1000" fill="none" xmlns="http://www.w3.org/2000/svg">
<path d="M1021.5 850V284C1021.5 284 1009.25 125 897 125C784.75 125 772.5 284 772.5 284C772.5 284 772.5 686.5 772.5 779.5C772.5 872.5 666 832.5 639.5 811.5L495 666M173 850V284C173 284 168.5 125 332.5 125C496.5 125 495 284 495 284V666M495 666C495 666 329 468.5 316 566C298.29 698.825 326.555 770.642 363.5 825.5C380 850 495 900 495 797.5C495 749.466 495 666 495 666Z" stroke="white" stroke-width="20" stroke-linecap="round" stroke-linejoin="round" stroke-dasharray="40 40"/>
<circle cx="175" cy="854" r="40" fill="#1FA5F4"/>
<path d="M178.442 839.909V869H174.919V843.602H174.749L167.646 848.318V844.739L174.919 839.909H178.442Z" fill="white"/>
<circle cx="1022" cy="854" r="40" fill="#1FA5F4"/>
<path d="M1012.4 869V866.443L1022 855.932C1023.13 854.701 1024.06 853.631 1024.79 852.722C1025.52 851.803 1026.06 850.941 1026.41 850.136C1026.77 849.322 1026.95 848.47 1026.95 847.58C1026.95 846.557 1026.7 845.671 1026.21 844.923C1025.73 844.175 1025.06 843.598 1024.22 843.19C1023.38 842.783 1022.43 842.58 1021.38 842.58C1020.26 842.58 1019.29 842.812 1018.45 843.276C1017.63 843.73 1016.99 844.369 1016.54 845.193C1016.09 846.017 1015.87 846.983 1015.87 848.091H1012.52C1012.52 846.386 1012.91 844.89 1013.69 843.602C1014.48 842.314 1015.55 841.311 1016.9 840.591C1018.27 839.871 1019.8 839.511 1021.49 839.511C1023.2 839.511 1024.71 839.871 1026.02 840.591C1027.34 841.311 1028.37 842.281 1029.12 843.503C1029.87 844.724 1030.24 846.083 1030.24 847.58C1030.24 848.65 1030.05 849.696 1029.66 850.719C1029.28 851.732 1028.62 852.864 1027.67 854.114C1026.73 855.354 1025.43 856.869 1023.77 858.659L1017.23 865.648V865.875H1030.75V869H1012.4Z" fill="white"/>
</svg>
