<svg width="1200" height="1000" viewBox="0 0 1200 1000" fill="none" xmlns="http://www.w3.org/2000/svg">
<path d="M158 850V284C158 284 167.25 125 279.5 125C391.75 125 400.5 284 400.5 284C400.5 284 400.5 686.5 400.5 779.5C400.5 872.5 479 844 536 817C612 739.5 722 611.5 722 611.5M1044 850V284C1044 284 1048.5 125 884.5 125C720.5 125 722 284 722 284V611.5M722 611.5V850C722 850 845 850 845 716C845 567 722 611.5 722 611.5Z" stroke="white" stroke-width="100" stroke-linecap="round" stroke-linejoin="round"/>
</svg>
