<svg width="1200" height="1000" viewBox="0 0 1200 1000" fill="none" xmlns="http://www.w3.org/2000/svg">
<path d="M329 858.955V263.499C329 263.499 329 127.999 246.5 127.999" stroke="white" stroke-opacity="0.5" stroke-width="100" stroke-linecap="round" stroke-linejoin="round"/>
<path d="M329 858.956V263.499C329 263.499 564.403 60.5003 631.5 140.5C644.5 156 643.5 240.5 643.5 240.5M643.5 240.5C643.5 240.5 643.5 886.456 643.5 858.956M643.5 240.5C643.5 240.5 846.983 97.4701 898.5 128C952.5 160 952.5 240.5 952.5 240.5V858.956" stroke="white" stroke-width="20" stroke-linecap="round" stroke-linejoin="round" stroke-dasharray="40 40"/>
<circle cx="330" cy="860" r="40" fill="#1FA5F4"/>
<path d="M320.402 875V872.443L330.004 861.932C331.131 860.701 332.059 859.631 332.788 858.722C333.518 857.803 334.057 856.941 334.408 856.136C334.768 855.322 334.947 854.47 334.947 853.58C334.947 852.557 334.701 851.671 334.209 850.923C333.726 850.175 333.063 849.598 332.22 849.19C331.377 848.783 330.43 848.58 329.379 848.58C328.262 848.58 327.286 848.812 326.453 849.276C325.629 849.73 324.99 850.369 324.536 851.193C324.09 852.017 323.868 852.983 323.868 854.091H320.516C320.516 852.386 320.909 850.89 321.695 849.602C322.481 848.314 323.551 847.311 324.905 846.591C326.268 845.871 327.798 845.511 329.493 845.511C331.197 845.511 332.708 845.871 334.024 846.591C335.34 847.311 336.373 848.281 337.121 849.503C337.869 850.724 338.243 852.083 338.243 853.58C338.243 854.65 338.049 855.696 337.661 856.719C337.282 857.732 336.619 858.864 335.672 860.114C334.734 861.354 333.432 862.869 331.766 864.659L325.232 871.648V871.875H338.754V875H320.402Z" fill="white"/>
<circle cx="646" cy="860" r="40" fill="#1FA5F4"/>
<path d="M645.107 875.398C643.232 875.398 641.56 875.076 640.092 874.432C638.634 873.788 637.474 872.893 636.612 871.747C635.76 870.592 635.296 869.252 635.22 867.727H638.8C638.875 868.665 639.197 869.474 639.766 870.156C640.334 870.829 641.077 871.349 641.996 871.719C642.914 872.088 643.932 872.273 645.05 872.273C646.3 872.273 647.408 872.055 648.374 871.619C649.339 871.184 650.097 870.578 650.646 869.801C651.196 869.025 651.47 868.125 651.47 867.102C651.47 866.032 651.205 865.09 650.675 864.276C650.144 863.452 649.368 862.808 648.345 862.344C647.322 861.88 646.072 861.648 644.595 861.648H642.266V858.523H644.595C645.75 858.523 646.764 858.314 647.635 857.898C648.516 857.481 649.202 856.894 649.695 856.136C650.196 855.379 650.447 854.489 650.447 853.466C650.447 852.481 650.23 851.624 649.794 850.895C649.358 850.166 648.743 849.598 647.947 849.19C647.161 848.783 646.233 848.58 645.163 848.58C644.16 848.58 643.213 848.764 642.322 849.134C641.442 849.493 640.722 850.019 640.163 850.71C639.605 851.392 639.302 852.216 639.254 853.182H635.845C635.902 851.657 636.361 850.322 637.223 849.176C638.085 848.021 639.212 847.121 640.604 846.477C642.005 845.833 643.544 845.511 645.22 845.511C647.019 845.511 648.563 845.876 649.851 846.605C651.139 847.325 652.128 848.277 652.82 849.46C653.511 850.644 653.857 851.922 653.857 853.295C653.857 854.934 653.426 856.33 652.564 857.486C651.712 858.641 650.552 859.441 649.084 859.886V860.114C650.921 860.417 652.356 861.198 653.388 862.457C654.42 863.707 654.936 865.256 654.936 867.102C654.936 868.684 654.505 870.104 653.643 871.364C652.791 872.614 651.626 873.598 650.149 874.318C648.672 875.038 646.991 875.398 645.107 875.398Z" fill="white"/>
<circle cx="953" cy="860" r="40" fill="#1FA5F4"/>
<path d="M941.498 869.034V866.136L954.282 845.909H956.384V850.398H954.963L945.304 865.682V865.909H962.52V869.034H941.498ZM955.191 875V868.153V866.804V845.909H958.543V875H955.191Z" fill="white"/>
</svg>
