<svg width="1523" height="1036" viewBox="0 0 1523 1036" fill="none" xmlns="http://www.w3.org/2000/svg">
<path d="M1097.65 551.066C1081.7 544.882 1064.28 541.789 1045.4 541.789C933.098 541.789 870.435 608.684 857.414 742.473C856.763 749.309 856.438 755.331 856.438 760.539C856.438 806.763 872.714 848.267 905.266 885.051C939.12 922.811 978.833 941.691 1024.41 941.691C1059.89 941.691 1086.42 927.694 1104 899.699C1118.97 876.262 1126.46 845.826 1126.46 808.391C1126.46 778.768 1110.83 749.96 1079.58 721.965C1048.66 694.947 1018.22 681.763 988.273 682.414C1009.76 667.766 1079.58 660.441 1197.75 660.441C1287.26 660.441 1332.02 668.905 1332.02 685.832V959.758H1242.18V756.145C1242.18 733.358 1232.9 721.965 1214.35 721.965C1216.63 721.965 1208.33 722.453 1189.45 723.43C1191.07 732.87 1191.89 742.961 1191.89 753.703C1191.89 812.297 1172.68 866.984 1134.27 917.766C1091.63 974.406 1039.05 1003.21 976.555 1004.19C918.612 1005.17 869.784 990.194 830.07 959.27C787.102 925.415 765.617 880.168 765.617 823.527C765.617 759.074 789.217 696.411 836.418 635.539C881.665 576.945 935.539 535.93 998.039 512.492C1049.15 493.286 1104.16 483.195 1163.08 482.219L1097.65 551.066Z" fill="white"/>
<path d="M182 295C172.667 304.333 161.333 309 148 309C134.667 309 123.333 304.333 114 295C104.667 285 100 273.333 100 260C100 246 104.667 234.333 114 225C123.333 215.667 134.667 211 148 211C161.333 211 172.667 215.667 182 225C192 234.333 197 246 197 260C197 273.333 192 285 182 295ZM473.016 295C463.682 304.333 452.349 309 439.016 309C425.682 309 414.349 304.333 405.016 295C395.682 285 391.016 273.333 391.016 260C391.016 246 395.682 234.333 405.016 225C414.349 215.667 425.682 211 439.016 211C452.349 211 463.682 215.667 473.016 225C483.016 234.333 488.016 246 488.016 260C488.016 273.333 483.016 285 473.016 295ZM764.031 295C754.698 304.333 743.365 309 730.031 309C716.698 309 705.365 304.333 696.031 295C686.698 285 682.031 273.333 682.031 260C682.031 246 686.698 234.333 696.031 225C705.365 215.667 716.698 211 730.031 211C743.365 211 754.698 215.667 764.031 225C774.031 234.333 779.031 246 779.031 260C779.031 273.333 774.031 285 764.031 295Z" fill="white"/>
</svg>
