<svg width="1200" height="1000" viewBox="0 0 1200 1000" fill="none" xmlns="http://www.w3.org/2000/svg">
<path d="M874.5 287V853M874.5 287C874.5 287 864 128 717 128C570 128 570 287 570 287V458M874.5 287C874.5 287 925 128 1041 128C1114.5 128 1114.5 287 1114.5 287V853M348 510L570 458M570 458V853C570 853 717 853 717 656C717 458 570 458 570 458Z" stroke="white" stroke-opacity="0.7" stroke-width="20" stroke-linecap="round" stroke-linejoin="round" stroke-dasharray="40 40"/>
<circle cx="348" cy="512" r="40" fill="#1FA5F4" fill-opacity="0.7"/>
<path d="M347.107 527.398C345.232 527.398 343.56 527.076 342.092 526.432C340.634 525.788 339.474 524.893 338.612 523.747C337.76 522.592 337.296 521.252 337.22 519.727H340.8C340.875 520.665 341.197 521.474 341.766 522.156C342.334 522.829 343.077 523.349 343.996 523.719C344.914 524.088 345.932 524.273 347.05 524.273C348.3 524.273 349.408 524.055 350.374 523.619C351.339 523.184 352.097 522.578 352.646 521.801C353.196 521.025 353.47 520.125 353.47 519.102C353.47 518.032 353.205 517.09 352.675 516.276C352.144 515.452 351.368 514.808 350.345 514.344C349.322 513.88 348.072 513.648 346.595 513.648H344.266V510.523H346.595C347.75 510.523 348.764 510.314 349.635 509.898C350.516 509.481 351.202 508.894 351.695 508.136C352.196 507.379 352.447 506.489 352.447 505.466C352.447 504.481 352.23 503.624 351.794 502.895C351.358 502.166 350.743 501.598 349.947 501.19C349.161 500.783 348.233 500.58 347.163 500.58C346.16 500.58 345.213 500.764 344.322 501.134C343.442 501.493 342.722 502.019 342.163 502.71C341.605 503.392 341.302 504.216 341.254 505.182H337.845C337.902 503.657 338.361 502.322 339.223 501.176C340.085 500.021 341.212 499.121 342.604 498.477C344.005 497.833 345.544 497.511 347.22 497.511C349.019 497.511 350.563 497.876 351.851 498.605C353.139 499.325 354.128 500.277 354.82 501.46C355.511 502.644 355.857 503.922 355.857 505.295C355.857 506.934 355.426 508.33 354.564 509.486C353.712 510.641 352.552 511.441 351.084 511.886V512.114C352.921 512.417 354.356 513.198 355.388 514.457C356.42 515.707 356.936 517.256 356.936 519.102C356.936 520.684 356.505 522.104 355.643 523.364C354.791 524.614 353.626 525.598 352.149 526.318C350.672 527.038 348.991 527.398 347.107 527.398Z" fill="white" fill-opacity="0.7"/>
<circle cx="877" cy="853" r="40" fill="#1FA5F4" fill-opacity="0.7"/>
<path d="M865.498 862.034V859.136L878.282 838.909H880.384V843.398H878.963L869.304 858.682V858.909H886.52V862.034H865.498ZM879.191 868V861.153V859.804V838.909H882.543V868H879.191Z" fill="white" fill-opacity="0.7"/>
<circle cx="1115" cy="853" r="40" fill="#1FA5F4" fill-opacity="0.7"/>
<path d="M1114.43 868.398C1112.77 868.398 1111.27 868.066 1109.93 867.403C1108.6 866.741 1107.53 865.831 1106.72 864.676C1105.92 863.521 1105.48 862.205 1105.4 860.727H1108.81C1108.94 862.044 1109.54 863.133 1110.6 863.994C1111.67 864.847 1112.95 865.273 1114.43 865.273C1115.63 865.273 1116.69 864.993 1117.62 864.435C1118.55 863.876 1119.29 863.109 1119.82 862.134C1120.36 861.149 1120.63 860.036 1120.63 858.795C1120.63 857.527 1120.35 856.395 1119.79 855.401C1119.24 854.397 1118.48 853.606 1117.52 853.028C1116.55 852.451 1115.45 852.157 1114.21 852.148C1113.32 852.138 1112.4 852.276 1111.47 852.56C1110.53 852.834 1109.76 853.189 1109.15 853.625L1105.85 853.227L1107.62 838.909H1122.73V842.034H1110.57L1109.55 850.614H1109.72C1110.31 850.14 1111.06 849.747 1111.96 849.435C1112.86 849.122 1113.8 848.966 1114.78 848.966C1116.56 848.966 1118.14 849.392 1119.53 850.244C1120.94 851.087 1122.03 852.242 1122.83 853.71C1123.63 855.178 1124.04 856.854 1124.04 858.739C1124.04 860.595 1123.62 862.252 1122.79 863.71C1121.96 865.159 1120.83 866.305 1119.38 867.148C1117.93 867.981 1116.28 868.398 1114.43 868.398Z" fill="white" fill-opacity="0.7"/>
<path d="M86 853V287C86 287 86 128 217.5 128C349 128 348 287 348 287V510V853" stroke="white" stroke-width="20" stroke-linecap="round" stroke-linejoin="round" stroke-dasharray="40 40"/>
<circle cx="86" cy="853" r="40" fill="#1FA5F4"/>
<path d="M89.4418 838.909V868H85.919V842.602H85.7486L78.6463 847.318V843.739L85.919 838.909H89.4418Z" fill="white"/>
<circle cx="348" cy="853" r="40" fill="#1FA5F4"/>
<path d="M338.402 868V865.443L348.004 854.932C349.131 853.701 350.059 852.631 350.788 851.722C351.518 850.803 352.057 849.941 352.408 849.136C352.768 848.322 352.947 847.47 352.947 846.58C352.947 845.557 352.701 844.671 352.209 843.923C351.726 843.175 351.063 842.598 350.22 842.19C349.377 841.783 348.43 841.58 347.379 841.58C346.262 841.58 345.286 841.812 344.453 842.276C343.629 842.73 342.99 843.369 342.536 844.193C342.09 845.017 341.868 845.983 341.868 847.091H338.516C338.516 845.386 338.909 843.89 339.695 842.602C340.481 841.314 341.551 840.311 342.905 839.591C344.268 838.871 345.798 838.511 347.493 838.511C349.197 838.511 350.708 838.871 352.024 839.591C353.34 840.311 354.373 841.281 355.121 842.503C355.869 843.724 356.243 845.083 356.243 846.58C356.243 847.65 356.049 848.696 355.661 849.719C355.282 850.732 354.619 851.864 353.672 853.114C352.734 854.354 351.432 855.869 349.766 857.659L343.232 864.648V864.875H356.754V868H338.402Z" fill="white"/>
</svg>
