<svg width="1200" height="1000" viewBox="0 0 1200 1000" fill="none" xmlns="http://www.w3.org/2000/svg">
<path d="M170 780V157C170 157 170 55 282.999 55C395.998 55 396.499 157 396.499 157V780H497C497 780 542.386 784.11 608.5 745C715 682 702 583.583 664 567C580.5 530.562 542.435 607.491 538.5 620.5C507.5 723 559.185 851 568 870.5C601 943.5 635 952 669.5 940.5C704 929 759 853 759 853" stroke="white" stroke-opacity="0.5" stroke-width="100" stroke-linecap="round" stroke-linejoin="round"/>
<path d="M816.5 124C816.5 124 852.5 55 941.5 55C1030.5 55 1030.5 124 1030.5 124V780M816.5 124V205M816.5 124C816.5 124 816.5 55 755 55C693.5 55 693.5 124 693.5 124V205" stroke="white" stroke-width="20" stroke-linecap="round" stroke-linejoin="round" stroke-dasharray="40 40"/>
<circle cx="693" cy="217" r="40" fill="#1FA5F4"/>
<path d="M692.107 232.398C690.232 232.398 688.56 232.076 687.092 231.432C685.634 230.788 684.474 229.893 683.612 228.747C682.76 227.592 682.296 226.252 682.22 224.727H685.8C685.875 225.665 686.197 226.474 686.766 227.156C687.334 227.829 688.077 228.349 688.996 228.719C689.914 229.088 690.932 229.273 692.05 229.273C693.3 229.273 694.408 229.055 695.374 228.619C696.339 228.184 697.097 227.578 697.646 226.801C698.196 226.025 698.47 225.125 698.47 224.102C698.47 223.032 698.205 222.09 697.675 221.276C697.144 220.452 696.368 219.808 695.345 219.344C694.322 218.88 693.072 218.648 691.595 218.648H689.266V215.523H691.595C692.75 215.523 693.764 215.314 694.635 214.898C695.516 214.481 696.202 213.894 696.695 213.136C697.196 212.379 697.447 211.489 697.447 210.466C697.447 209.481 697.23 208.624 696.794 207.895C696.358 207.166 695.743 206.598 694.947 206.19C694.161 205.783 693.233 205.58 692.163 205.58C691.16 205.58 690.213 205.764 689.322 206.134C688.442 206.493 687.722 207.019 687.163 207.71C686.605 208.392 686.302 209.216 686.254 210.182H682.845C682.902 208.657 683.361 207.322 684.223 206.176C685.085 205.021 686.212 204.121 687.604 203.477C689.005 202.833 690.544 202.511 692.22 202.511C694.019 202.511 695.563 202.876 696.851 203.605C698.139 204.325 699.128 205.277 699.82 206.46C700.511 207.644 700.857 208.922 700.857 210.295C700.857 211.934 700.426 213.33 699.564 214.486C698.712 215.641 697.552 216.441 696.084 216.886V217.114C697.921 217.417 699.356 218.198 700.388 219.457C701.42 220.707 701.936 222.256 701.936 224.102C701.936 225.684 701.505 227.104 700.643 228.364C699.791 229.614 698.626 230.598 697.149 231.318C695.672 232.038 693.991 232.398 692.107 232.398Z" fill="white"/>
<circle cx="1031" cy="809" r="40" fill="#1FA5F4"/>
<path d="M1019.5 818.034V815.136L1032.28 794.909H1034.38V799.398H1032.96L1023.3 814.682V814.909H1040.52V818.034H1019.5ZM1033.19 824V817.153V815.804V794.909H1036.54V824H1033.19Z" fill="white"/>
</svg>
