<svg width="1200" height="1000" viewBox="0 0 1200 1000" fill="none" xmlns="http://www.w3.org/2000/svg">
<path d="M172 849V283C172 283 181.25 124 293.5 124C405.75 124 414.5 283 414.5 283C414.5 283 414.5 450.911 414.5 558.5M414.5 558.5C535 558.5 650 739.5 695 801.5C740 863.5 801.5 829 801.5 801.5C801.5 774 802.5 346.5 801.5 294C800.5 241.5 648.5 240 648.5 240M414.5 558.5C414.5 558.5 274.5 558.5 274.5 703.5C274.5 848.5 414.5 849 414.5 849C414.5 849 414.5 671.947 414.5 558.5Z" stroke="white" stroke-opacity="0.5" stroke-width="100" stroke-linecap="round" stroke-linejoin="round"/>
<path d="M1030 849V283C1030 283 1030 103.5 890 136.5C750 169.5 648.5 240 648.5 240" stroke="white" stroke-width="20" stroke-linecap="round" stroke-linejoin="round" stroke-dasharray="40 40"/>
<circle cx="649" cy="240" r="40" fill="#1FA5F4"/>
<path d="M639.402 255V252.443L649.004 241.932C650.131 240.701 651.059 239.631 651.788 238.722C652.518 237.803 653.057 236.941 653.408 236.136C653.768 235.322 653.947 234.47 653.947 233.58C653.947 232.557 653.701 231.671 653.209 230.923C652.726 230.175 652.063 229.598 651.22 229.19C650.377 228.783 649.43 228.58 648.379 228.58C647.262 228.58 646.286 228.812 645.453 229.276C644.629 229.73 643.99 230.369 643.536 231.193C643.09 232.017 642.868 232.983 642.868 234.091H639.516C639.516 232.386 639.909 230.89 640.695 229.602C641.481 228.314 642.551 227.311 643.905 226.591C645.268 225.871 646.798 225.511 648.493 225.511C650.197 225.511 651.708 225.871 653.024 226.591C654.34 227.311 655.373 228.281 656.121 229.503C656.869 230.724 657.243 232.083 657.243 233.58C657.243 234.65 657.049 235.696 656.661 236.719C656.282 237.732 655.619 238.864 654.672 240.114C653.734 241.354 652.432 242.869 650.766 244.659L644.232 251.648V251.875H657.754V255H639.402Z" fill="white"/>
<circle cx="1030" cy="849" r="40" fill="#1FA5F4"/>
<path d="M1029.11 864.398C1027.23 864.398 1025.56 864.076 1024.09 863.432C1022.63 862.788 1021.47 861.893 1020.61 860.747C1019.76 859.592 1019.3 858.252 1019.22 856.727H1022.8C1022.88 857.665 1023.2 858.474 1023.77 859.156C1024.33 859.829 1025.08 860.349 1026 860.719C1026.91 861.088 1027.93 861.273 1029.05 861.273C1030.3 861.273 1031.41 861.055 1032.37 860.619C1033.34 860.184 1034.1 859.578 1034.65 858.801C1035.2 858.025 1035.47 857.125 1035.47 856.102C1035.47 855.032 1035.21 854.09 1034.67 853.276C1034.14 852.452 1033.37 851.808 1032.35 851.344C1031.32 850.88 1030.07 850.648 1028.6 850.648H1026.27V847.523H1028.6C1029.75 847.523 1030.76 847.314 1031.63 846.898C1032.52 846.481 1033.2 845.894 1033.69 845.136C1034.2 844.379 1034.45 843.489 1034.45 842.466C1034.45 841.481 1034.23 840.624 1033.79 839.895C1033.36 839.166 1032.74 838.598 1031.95 838.19C1031.16 837.783 1030.23 837.58 1029.16 837.58C1028.16 837.58 1027.21 837.764 1026.32 838.134C1025.44 838.493 1024.72 839.019 1024.16 839.71C1023.6 840.392 1023.3 841.216 1023.25 842.182H1019.85C1019.9 840.657 1020.36 839.322 1021.22 838.176C1022.08 837.021 1023.21 836.121 1024.6 835.477C1026.01 834.833 1027.54 834.511 1029.22 834.511C1031.02 834.511 1032.56 834.876 1033.85 835.605C1035.14 836.325 1036.13 837.277 1036.82 838.46C1037.51 839.644 1037.86 840.922 1037.86 842.295C1037.86 843.934 1037.43 845.33 1036.56 846.486C1035.71 847.641 1034.55 848.441 1033.08 848.886V849.114C1034.92 849.417 1036.36 850.198 1037.39 851.457C1038.42 852.707 1038.94 854.256 1038.94 856.102C1038.94 857.684 1038.51 859.104 1037.64 860.364C1036.79 861.614 1035.63 862.598 1034.15 863.318C1032.67 864.038 1030.99 864.398 1029.11 864.398Z" fill="white"/>
</svg>
