<svg width="1503" height="1402" viewBox="0 0 1503 1402" fill="none" xmlns="http://www.w3.org/2000/svg">
<path d="M525.461 1309.16C396.555 1309.16 285.389 1294.35 191.965 1264.72C64.0352 1224.36 0.0703125 1162.02 0.0703125 1077.71C0.0703125 989.495 47.9219 921.461 143.625 873.609L83.0781 948.805C69.0807 971.917 62.082 1004.31 62.082 1045.97C62.082 1168.04 233.632 1229.08 576.73 1229.08C692.29 1229.08 788.156 1202.71 864.328 1149.98C950.917 1090.08 994.211 1005.45 994.211 896.07V240.797C994.211 169.833 1008.86 113.681 1038.16 72.3398C1072.01 24.4883 1122.95 0.5625 1190.99 0.5625C1243.72 0.5625 1285.06 25.7904 1315.01 76.2461C1340.08 118.564 1352.61 167.555 1352.61 223.219V965.895H1221.26V223.219C1221.26 192.62 1214.75 161.695 1201.73 130.445C1185.45 91.7083 1164.78 72.3398 1139.72 72.3398C1107.49 72.3398 1084.38 93.987 1070.38 137.281C1060.94 165.602 1056.22 200.107 1056.22 240.797V899.488C1056.22 1029.05 997.792 1132.24 880.93 1209.06C779.693 1275.79 661.203 1309.16 525.461 1309.16Z" fill="white"/>
<path d="M185 766C175.667 775.333 164.333 780 151 780C137.667 780 126.333 775.333 117 766C107.667 756 103 744.333 103 731C103 717 107.667 705.333 117 696C126.333 686.667 137.667 682 151 682C164.333 682 175.667 686.667 185 696C195 705.333 200 717 200 731C200 744.333 195 756 185 766ZM476.016 766C466.682 775.333 455.349 780 442.016 780C428.682 780 417.349 775.333 408.016 766C398.682 756 394.016 744.333 394.016 731C394.016 717 398.682 705.333 408.016 696C417.349 686.667 428.682 682 442.016 682C455.349 682 466.682 686.667 476.016 696C486.016 705.333 491.016 717 491.016 731C491.016 744.333 486.016 756 476.016 766ZM767.031 766C757.698 775.333 746.365 780 733.031 780C719.698 780 708.365 775.333 699.031 766C689.698 756 685.031 744.333 685.031 731C685.031 717 689.698 705.333 699.031 696C708.365 686.667 719.698 682 733.031 682C746.365 682 757.698 686.667 767.031 696C777.031 705.333 782.031 717 782.031 731C782.031 744.333 777.031 756 767.031 766Z" fill="white"/>
</svg>
