<svg width="1200" height="1000" viewBox="0 0 1200 1000" fill="none" xmlns="http://www.w3.org/2000/svg">
<path d="M91.0001 850V238C91.0001 238 91 125 196 125C301 125 302 240.889 302 240.889V759.5C302 759.5 302 843 395 843C488 843 487.5 759.5 487.5 759.5V238C487.5 238 488 125 594 125C700 125 700 238 700 238V759.5C700 759.5 700 843 799.5 843C899 843 899.5 759.5 899.5 759.5V238C899.5 238 899.5 125 1004.5 125C1109.5 125 1109.5 238 1109.5 238V843" stroke="white" stroke-width="20" stroke-linecap="round" stroke-linejoin="round" stroke-dasharray="40 40"/>
<circle cx="91" cy="850" r="40" fill="#1FA5F4"/>
<path d="M94.4418 835.909V865H90.919V839.602H90.7486L83.6463 844.318V840.739L90.919 835.909H94.4418Z" fill="white"/>
<circle cx="1110" cy="850" r="40" fill="#1FA5F4"/>
<path d="M1100.4 865V862.443L1110 851.932C1111.13 850.701 1112.06 849.631 1112.79 848.722C1113.52 847.803 1114.06 846.941 1114.41 846.136C1114.77 845.322 1114.95 844.47 1114.95 843.58C1114.95 842.557 1114.7 841.671 1114.21 840.923C1113.73 840.175 1113.06 839.598 1112.22 839.19C1111.38 838.783 1110.43 838.58 1109.38 838.58C1108.26 838.58 1107.29 838.812 1106.45 839.276C1105.63 839.73 1104.99 840.369 1104.54 841.193C1104.09 842.017 1103.87 842.983 1103.87 844.091H1100.52C1100.52 842.386 1100.91 840.89 1101.69 839.602C1102.48 838.314 1103.55 837.311 1104.9 836.591C1106.27 835.871 1107.8 835.511 1109.49 835.511C1111.2 835.511 1112.71 835.871 1114.02 836.591C1115.34 837.311 1116.37 838.281 1117.12 839.503C1117.87 840.724 1118.24 842.083 1118.24 843.58C1118.24 844.65 1118.05 845.696 1117.66 846.719C1117.28 847.732 1116.62 848.864 1115.67 850.114C1114.73 851.354 1113.43 852.869 1111.77 854.659L1105.23 861.648V861.875H1118.75V865H1100.4Z" fill="white"/>
</svg>
