<svg width="998" height="1857" viewBox="0 0 998 1857" fill="none" xmlns="http://www.w3.org/2000/svg">
<path d="M308 149.898C308 108.557 327.206 73.2383 365.617 43.9414C403.703 14.6445 449.764 -0.00390625 503.801 -0.00390625C557.837 -0.00390625 604.061 14.6445 642.473 43.9414C680.559 73.2383 699.602 108.557 699.602 149.898C699.602 191.24 680.559 226.559 642.473 255.855C604.061 285.152 557.837 299.801 503.801 299.801C449.764 299.801 403.703 285.152 365.617 255.855C327.206 226.559 308 191.24 308 149.898ZM395.402 196.285C401.262 220.048 413.469 239.579 432.023 254.879C450.578 269.853 471.086 277.34 493.547 277.34C500.708 277.34 507.87 276.526 515.031 274.898C536.516 269.365 553.931 257.646 567.277 239.742C580.624 221.513 587.297 200.68 587.297 177.242C587.297 168.128 586.158 159.013 583.879 149.898C577.694 125.81 565.324 106.279 546.77 91.3047C528.215 76.0052 507.707 68.3555 485.246 68.3555C478.085 68.3555 470.923 69.332 463.762 71.2852C442.277 76.4935 425.025 88.2122 412.004 106.441C398.658 124.671 391.984 145.341 391.984 168.453C391.984 177.893 393.124 187.171 395.402 196.285Z" fill="white"/>
<path d="M182 1116C172.667 1125.33 161.333 1130 148 1130C134.667 1130 123.333 1125.33 114 1116C104.667 1106 100 1094.33 100 1081C100 1067 104.667 1055.33 114 1046C123.333 1036.67 134.667 1032 148 1032C161.333 1032 172.667 1036.67 182 1046C192 1055.33 197 1067 197 1081C197 1094.33 192 1106 182 1116ZM473.016 1116C463.682 1125.33 452.349 1130 439.016 1130C425.682 1130 414.349 1125.33 405.016 1116C395.682 1106 391.016 1094.33 391.016 1081C391.016 1067 395.682 1055.33 405.016 1046C414.349 1036.67 425.682 1032 439.016 1032C452.349 1032 463.682 1036.67 473.016 1046C483.016 1055.33 488.016 1067 488.016 1081C488.016 1094.33 483.016 1106 473.016 1116ZM764.031 1116C754.698 1125.33 743.365 1130 730.031 1130C716.698 1130 705.365 1125.33 696.031 1116C686.698 1106 682.031 1094.33 682.031 1081C682.031 1067 686.698 1055.33 696.031 1046C705.365 1036.67 716.698 1032 730.031 1032C743.365 1032 754.698 1036.67 764.031 1046C774.031 1055.33 779.031 1067 779.031 1081C779.031 1094.33 774.031 1106 764.031 1116Z" fill="white"/>
</svg>
