<svg width="1200" height="1000" viewBox="0 0 1200 1000" fill="none" xmlns="http://www.w3.org/2000/svg">
<path d="M1021.5 850V284C1021.5 284 1009.25 125 897 125C784.75 125 772.5 284 772.5 284C772.5 284 772.5 686.5 772.5 779.5C772.5 872.5 666 832.5 639.5 811.5L495 666M173 850V284C173 284 168.5 125 332.5 125C496.5 125 495 284 495 284V666M495 666C495 666 329 468.5 316 566C298.29 698.825 326.555 770.642 363.5 825.5C380 850 495 900 495 797.5C495 749.466 495 666 495 666Z" stroke="white" stroke-width="100" stroke-linecap="round" stroke-linejoin="round"/>
</svg>
