<svg width="1220" height="1000" viewBox="0 0 1220 1000" fill="none" xmlns="http://www.w3.org/2000/svg">
<path d="M50 835.908V258.531C50 258.531 50.0007 164 141.749 164C233.498 164 233.963 258.531 233.963 258.531V835.908H353.053C353.053 835.908 379.177 835.908 437.853 795.593C469.883 773.586 489.288 742.304 489.288 742.304H427.195" stroke="white" stroke-width="100" stroke-linecap="round" stroke-linejoin="round"/>
<path d="M724.224 227.947C724.224 227.947 849.801 164 897.066 164C944.331 164 947.575 227.947 947.575 227.947V835.908M724.224 227.947V835.908M724.224 227.947C724.224 227.947 724.224 164 644.985 164C565.746 164 562.966 227.947 562.966 227.947M562.966 227.947V303.015M562.966 227.947C562.966 227.947 562.966 164 504.579 164C446.656 164 446.656 227.947 446.656 227.947V303.015" stroke="white" stroke-width="100" stroke-linecap="round" stroke-linejoin="round"/>
<path d="M947.574 835.908V227.947C947.574 227.947 1033.76 164 1101.88 164C1170 164 1170 227.947 1170 227.947V835.908" stroke="white" stroke-width="100" stroke-linecap="round" stroke-linejoin="round"/>
</svg>
