<svg width="1200" height="1000" viewBox="0 0 1200 1000" fill="none" xmlns="http://www.w3.org/2000/svg">
<path d="M459 868.955V273.499C459 273.499 459 137.999 376.5 137.999" stroke="white" stroke-opacity="0.5" stroke-width="100" stroke-linecap="round" stroke-linejoin="round"/>
<path d="M459 868.955V273.499C459 273.499 733.548 57.5581 811.5 150.5C824.5 166 824.5 250.5 824.5 250.5C824.5 250.5 824.5 896.455 824.5 868.955" stroke="white" stroke-width="20" stroke-linecap="round" stroke-linejoin="round" stroke-dasharray="40 40"/>
<circle cx="458" cy="870" r="40" fill="#1FA5F4"/>
<path d="M448.402 885V882.443L458.004 871.932C459.131 870.701 460.059 869.631 460.788 868.722C461.518 867.803 462.057 866.941 462.408 866.136C462.768 865.322 462.947 864.47 462.947 863.58C462.947 862.557 462.701 861.671 462.209 860.923C461.726 860.175 461.063 859.598 460.22 859.19C459.377 858.783 458.43 858.58 457.379 858.58C456.262 858.58 455.286 858.812 454.453 859.276C453.629 859.73 452.99 860.369 452.536 861.193C452.09 862.017 451.868 862.983 451.868 864.091H448.516C448.516 862.386 448.909 860.89 449.695 859.602C450.481 858.314 451.551 857.311 452.905 856.591C454.268 855.871 455.798 855.511 457.493 855.511C459.197 855.511 460.708 855.871 462.024 856.591C463.34 857.311 464.373 858.281 465.121 859.503C465.869 860.724 466.243 862.083 466.243 863.58C466.243 864.65 466.049 865.696 465.661 866.719C465.282 867.732 464.619 868.864 463.672 870.114C462.734 871.354 461.432 872.869 459.766 874.659L453.232 881.648V881.875H466.754V885H448.402Z" fill="white"/>
<circle cx="825" cy="870" r="40" fill="#1FA5F4"/>
<path d="M824.107 885.398C822.232 885.398 820.56 885.076 819.092 884.432C817.634 883.788 816.474 882.893 815.612 881.747C814.76 880.592 814.296 879.252 814.22 877.727H817.8C817.875 878.665 818.197 879.474 818.766 880.156C819.334 880.829 820.077 881.349 820.996 881.719C821.914 882.088 822.932 882.273 824.05 882.273C825.3 882.273 826.408 882.055 827.374 881.619C828.339 881.184 829.097 880.578 829.646 879.801C830.196 879.025 830.47 878.125 830.47 877.102C830.47 876.032 830.205 875.09 829.675 874.276C829.144 873.452 828.368 872.808 827.345 872.344C826.322 871.88 825.072 871.648 823.595 871.648H821.266V868.523H823.595C824.75 868.523 825.764 868.314 826.635 867.898C827.516 867.481 828.202 866.894 828.695 866.136C829.196 865.379 829.447 864.489 829.447 863.466C829.447 862.481 829.23 861.624 828.794 860.895C828.358 860.166 827.743 859.598 826.947 859.19C826.161 858.783 825.233 858.58 824.163 858.58C823.16 858.58 822.213 858.764 821.322 859.134C820.442 859.493 819.722 860.019 819.163 860.71C818.605 861.392 818.302 862.216 818.254 863.182H814.845C814.902 861.657 815.361 860.322 816.223 859.176C817.085 858.021 818.212 857.121 819.604 856.477C821.005 855.833 822.544 855.511 824.22 855.511C826.019 855.511 827.563 855.876 828.851 856.605C830.139 857.325 831.128 858.277 831.82 859.46C832.511 860.644 832.857 861.922 832.857 863.295C832.857 864.934 832.426 866.33 831.564 867.486C830.712 868.641 829.552 869.441 828.084 869.886V870.114C829.921 870.417 831.356 871.198 832.388 872.457C833.42 873.707 833.936 875.256 833.936 877.102C833.936 878.684 833.505 880.104 832.643 881.364C831.791 882.614 830.626 883.598 829.149 884.318C827.672 885.038 825.991 885.398 824.107 885.398Z" fill="white"/>
</svg>
