<svg width="1200" height="1000" viewBox="0 0 1200 1000" fill="none" xmlns="http://www.w3.org/2000/svg">
<path d="M151 835.908V258.531C151 258.531 151.001 164 242.749 164C334.498 164 334.963 258.531 334.963 258.531V835.908H454.053C454.053 835.908 480.177 835.908 538.853 795.593C570.883 773.586 590.288 742.304 590.288 742.304H528.195" stroke="white" stroke-width="100" stroke-linecap="round" stroke-linejoin="round"/>
<path d="M825.224 227.947C825.224 227.947 950.801 164 998.066 164C1045.33 164 1048.57 227.947 1048.57 227.947V835.908M825.224 227.947V835.908M825.224 227.947C825.224 227.947 825.224 164 745.985 164C666.746 164 663.966 227.947 663.966 227.947M663.966 227.947V303.015M663.966 227.947C663.966 227.947 663.966 164 605.579 164C547.656 164 547.656 227.947 547.656 227.947V303.015" stroke="white" stroke-width="100" stroke-linecap="round" stroke-linejoin="round"/>
</svg>
