<svg width="1200" height="1000" viewBox="0 0 1200 1000" fill="none" xmlns="http://www.w3.org/2000/svg">
<path d="M184 849V283C184 283 193.25 124 305.5 124C417.75 124 426.5 283 426.5 283C426.5 283 426.5 699 426.5 774C426.5 849 427.468 849 495 849C562.532 849 661.036 849 699.5 849C760.5 849 794.5 841.5 794.5 801.5C794.5 761.5 795.9 367.5 794.5 294C793.1 220.5 672.5 241 672.5 241" stroke="white" stroke-opacity="0.5" stroke-width="100" stroke-linecap="round" stroke-linejoin="round"/>
<path d="M1014.5 849V283C1014.5 283 1014.5 109.983 902 136.5C789.5 163.018 672.5 241 672.5 241" stroke="white" stroke-width="20" stroke-linecap="round" stroke-linejoin="round" stroke-dasharray="40 40"/>
<circle cx="666" cy="237" r="40" fill="#1FA5F4"/>
<path d="M656.402 252V249.443L666.004 238.932C667.131 237.701 668.059 236.631 668.788 235.722C669.518 234.803 670.057 233.941 670.408 233.136C670.768 232.322 670.947 231.47 670.947 230.58C670.947 229.557 670.701 228.671 670.209 227.923C669.726 227.175 669.063 226.598 668.22 226.19C667.377 225.783 666.43 225.58 665.379 225.58C664.262 225.58 663.286 225.812 662.453 226.276C661.629 226.73 660.99 227.369 660.536 228.193C660.09 229.017 659.868 229.983 659.868 231.091H656.516C656.516 229.386 656.909 227.89 657.695 226.602C658.481 225.314 659.551 224.311 660.905 223.591C662.268 222.871 663.798 222.511 665.493 222.511C667.197 222.511 668.708 222.871 670.024 223.591C671.34 224.311 672.373 225.281 673.121 226.503C673.869 227.724 674.243 229.083 674.243 230.58C674.243 231.65 674.049 232.696 673.661 233.719C673.282 234.732 672.619 235.864 671.672 237.114C670.734 238.354 669.432 239.869 667.766 241.659L661.232 248.648V248.875H674.754V252H656.402Z" fill="white"/>
<circle cx="1015" cy="853" r="40" fill="#1FA5F4"/>
<path d="M1014.11 868.398C1012.23 868.398 1010.56 868.076 1009.09 867.432C1007.63 866.788 1006.47 865.893 1005.61 864.747C1004.76 863.592 1004.3 862.252 1004.22 860.727H1007.8C1007.88 861.665 1008.2 862.474 1008.77 863.156C1009.33 863.829 1010.08 864.349 1011 864.719C1011.91 865.088 1012.93 865.273 1014.05 865.273C1015.3 865.273 1016.41 865.055 1017.37 864.619C1018.34 864.184 1019.1 863.578 1019.65 862.801C1020.2 862.025 1020.47 861.125 1020.47 860.102C1020.47 859.032 1020.21 858.09 1019.67 857.276C1019.14 856.452 1018.37 855.808 1017.35 855.344C1016.32 854.88 1015.07 854.648 1013.6 854.648H1011.27V851.523H1013.6C1014.75 851.523 1015.76 851.314 1016.63 850.898C1017.52 850.481 1018.2 849.894 1018.69 849.136C1019.2 848.379 1019.45 847.489 1019.45 846.466C1019.45 845.481 1019.23 844.624 1018.79 843.895C1018.36 843.166 1017.74 842.598 1016.95 842.19C1016.16 841.783 1015.23 841.58 1014.16 841.58C1013.16 841.58 1012.21 841.764 1011.32 842.134C1010.44 842.493 1009.72 843.019 1009.16 843.71C1008.6 844.392 1008.3 845.216 1008.25 846.182H1004.85C1004.9 844.657 1005.36 843.322 1006.22 842.176C1007.08 841.021 1008.21 840.121 1009.6 839.477C1011.01 838.833 1012.54 838.511 1014.22 838.511C1016.02 838.511 1017.56 838.876 1018.85 839.605C1020.14 840.325 1021.13 841.277 1021.82 842.46C1022.51 843.644 1022.86 844.922 1022.86 846.295C1022.86 847.934 1022.43 849.33 1021.56 850.486C1020.71 851.641 1019.55 852.441 1018.08 852.886V853.114C1019.92 853.417 1021.36 854.198 1022.39 855.457C1023.42 856.707 1023.94 858.256 1023.94 860.102C1023.94 861.684 1023.51 863.104 1022.64 864.364C1021.79 865.614 1020.63 866.598 1019.15 867.318C1017.67 868.038 1015.99 868.398 1014.11 868.398Z" fill="white"/>
</svg>
