<svg width="1523" height="1036" viewBox="0 0 1523 1036" fill="none" xmlns="http://www.w3.org/2000/svg">
<path d="M848.625 758.098V887.98C854.484 904.908 864.25 913.371 877.922 913.371C889.315 913.371 898.43 907.674 905.266 896.281C911.125 886.516 914.055 875.611 914.055 863.566V820.598C909.823 794.556 904.289 778.28 897.453 771.77C890.617 765.259 874.341 760.702 848.625 758.098ZM639.641 649.699C639.641 618.775 639.478 601.685 639.152 598.43C636.548 572.062 629.224 558.879 617.18 558.879C566.398 558.879 541.008 586.385 541.008 641.398V961.223H516.594V640.422C516.594 603.312 529.126 569.947 554.191 540.324C580.233 509.4 611.483 493.938 647.941 493.938C703.931 493.938 731.926 515.096 731.926 557.414V720.988C731.926 716.431 745.76 712.362 773.43 708.781C805.331 704.875 822.095 702.434 823.723 701.457V620.891C823.723 586.385 842.766 554.484 880.852 525.188C916.333 497.844 951.978 484.172 987.785 484.172C1041.82 484.172 1078.77 500.773 1098.62 533.977C1114.25 560.344 1122.06 603.964 1122.06 664.836V931.926L1177.73 883.098C1190.75 871.704 1202.3 866.008 1212.39 866.008C1223.79 866.008 1239.74 876.587 1260.25 897.746C1273.27 911.092 1283.68 917.766 1291.5 917.766C1292.47 917.44 1305.17 912.232 1329.58 902.141C1354 892.375 1370.11 886.516 1377.92 884.562L1319.82 935.344C1293.45 955.852 1271.31 966.105 1253.41 966.105C1249.83 966.105 1242.99 962.688 1232.9 955.852C1216.63 945.109 1205.72 938.436 1200.19 935.832C1189.12 928.996 1181.63 925.578 1177.73 925.578C1173.49 925.578 1167.15 928.671 1158.68 934.855C1140.13 948.202 1127.92 956.991 1122.06 961.223H1038.08V696.574C1038.08 594.361 1003.25 543.254 933.586 543.254C911.776 543.254 892.57 549.439 875.969 561.809C857.74 575.155 848.625 592.408 848.625 613.566V693.156C887.036 694.784 915.52 700.969 934.074 711.711C958.488 725.708 973.137 749.96 978.02 784.465V864.055C978.02 891.398 968.417 915.812 949.211 937.297C929.029 959.107 905.428 970.012 878.41 970.012C849.439 970.012 831.21 955.852 823.723 927.531V749.797C773.267 750.122 742.668 751.913 731.926 755.168V961.223H639.641V649.699Z" fill="white"/>
<path d="M182 295C172.667 304.333 161.333 309 148 309C134.667 309 123.333 304.333 114 295C104.667 285 100 273.333 100 260C100 246 104.667 234.333 114 225C123.333 215.667 134.667 211 148 211C161.333 211 172.667 215.667 182 225C192 234.333 197 246 197 260C197 273.333 192 285 182 295ZM473.016 295C463.682 304.333 452.349 309 439.016 309C425.682 309 414.349 304.333 405.016 295C395.682 285 391.016 273.333 391.016 260C391.016 246 395.682 234.333 405.016 225C414.349 215.667 425.682 211 439.016 211C452.349 211 463.682 215.667 473.016 225C483.016 234.333 488.016 246 488.016 260C488.016 273.333 483.016 285 473.016 295ZM764.031 295C754.698 304.333 743.365 309 730.031 309C716.698 309 705.365 304.333 696.031 295C686.698 285 682.031 273.333 682.031 260C682.031 246 686.698 234.333 696.031 225C705.365 215.667 716.698 211 730.031 211C743.365 211 754.698 215.667 764.031 225C774.031 234.333 779.031 246 779.031 260C779.031 273.333 774.031 285 764.031 295Z" fill="white"/>
</svg>
