<svg width="1523" height="1036" viewBox="0 0 1523 1036" fill="none" xmlns="http://www.w3.org/2000/svg">
<path d="M1047.84 744.426C1045.24 758.749 1043.94 779.094 1043.94 805.461C1043.94 864.38 1054.68 893.84 1076.16 893.84C1106.44 893.84 1121.57 873.658 1121.57 833.293C1121.57 811.158 1116.2 791.464 1105.46 774.211C1093.09 754.029 1076.65 743.938 1056.14 743.938C1053.54 743.938 1050.77 744.1 1047.84 744.426ZM894.035 603.312C893.059 584.107 884.107 574.504 867.18 574.504C830.07 574.504 802.076 594.035 783.195 633.098C768.221 664.348 760.734 703.247 760.734 749.797C760.734 796.346 766.105 825.155 776.848 836.223C788.892 848.918 802.727 855.266 818.352 855.266C851.88 855.266 889.315 830.038 930.656 779.582C945.63 760.702 972.648 726.359 1011.71 676.555C1013.99 627.076 1032.71 584.921 1067.86 550.09C1102.69 515.585 1144.69 498.332 1193.84 498.332C1285.96 498.332 1332.02 548.788 1332.02 649.699V954.387H1240.23L1240.71 652.141C1237.79 627.727 1224.11 609.009 1199.7 595.988C1179.52 585.246 1155.92 579.875 1128.9 579.875C1108.07 579.875 1088.7 591.105 1070.79 613.566C1052.89 636.027 1044.75 657.837 1046.38 678.996C1077.3 681.6 1095.7 683.553 1101.55 684.855C1122.06 689.413 1137.69 698.527 1148.43 712.199C1163.4 731.079 1172.19 762.167 1174.8 805.461C1176.42 831.177 1168.61 861.125 1151.36 895.305C1131.83 934.042 1109.86 953.41 1085.44 953.41C1068.19 953.41 1052.24 947.225 1037.59 934.855C1022.94 922.486 1014.15 907.674 1011.22 890.422C1009.92 882.935 1009.27 850.383 1009.27 792.766V705.363C966.301 760.702 912.59 825.155 848.137 898.723C825.676 924.439 795.077 937.297 756.34 937.297C697.095 937.297 667.473 905.396 667.473 841.594C667.473 790.812 684.4 736.776 718.254 679.484C745.598 632.935 778.638 591.757 817.375 555.949C865.227 511.678 908.033 489.543 945.793 489.543C963.371 489.543 972.811 498.658 974.113 516.887L894.035 603.312Z" fill="white"/>
<path d="M182 295C172.667 304.333 161.333 309 148 309C134.667 309 123.333 304.333 114 295C104.667 285 100 273.333 100 260C100 246 104.667 234.333 114 225C123.333 215.667 134.667 211 148 211C161.333 211 172.667 215.667 182 225C192 234.333 197 246 197 260C197 273.333 192 285 182 295ZM473.016 295C463.682 304.333 452.349 309 439.016 309C425.682 309 414.349 304.333 405.016 295C395.682 285 391.016 273.333 391.016 260C391.016 246 395.682 234.333 405.016 225C414.349 215.667 425.682 211 439.016 211C452.349 211 463.682 215.667 473.016 225C483.016 234.333 488.016 246 488.016 260C488.016 273.333 483.016 285 473.016 295ZM764.031 295C754.698 304.333 743.365 309 730.031 309C716.698 309 705.365 304.333 696.031 295C686.698 285 682.031 273.333 682.031 260C682.031 246 686.698 234.333 696.031 225C705.365 215.667 716.698 211 730.031 211C743.365 211 754.698 215.667 764.031 225C774.031 234.333 779.031 246 779.031 260C779.031 273.333 774.031 285 764.031 295Z" fill="white"/>
</svg>
