<svg width="1200" height="1000" viewBox="0 0 1200 1000" fill="none" xmlns="http://www.w3.org/2000/svg">
<path d="M184 849V283C184 283 193.25 124 305.5 124C417.75 124 426.5 283 426.5 283C426.5 283 426.5 699 426.5 774C426.5 849 427.468 849 495 849C562.532 849 661.036 849 699.5 849C760.5 849 794.5 841.5 794.5 801.5C794.5 761.5 795.9 367.5 794.5 294C793.1 220.5 672.5 241 672.5 241" stroke="white" stroke-width="100" stroke-linecap="round" stroke-linejoin="round"/>
<path d="M1014.5 849V283C1014.5 283 1014.5 109.983 902 136.5C789.5 163.018 672.5 241 672.5 241" stroke="white" stroke-width="100" stroke-linecap="round" stroke-linejoin="round"/>
</svg>
