<svg width="1523" height="1036" viewBox="0 0 1523 1036" fill="none" xmlns="http://www.w3.org/2000/svg">
<path d="M874.504 713.664C876.132 712.362 885.083 712.362 901.359 713.664L929.68 716.105C949.211 717.733 958.977 727.499 958.977 745.402V897.746L887.199 961.711C868.319 978.638 831.372 987.102 776.359 987.102C731.763 987.102 697.421 982.056 673.332 971.965C652.173 954.061 640.292 936.646 637.688 919.719V649.699C637.688 591.757 623.69 562.785 595.695 562.785C567.375 562.785 553.215 598.43 553.215 669.719V981.242H524.406V669.719C524.406 626.424 533.684 589.641 552.238 559.367C574.374 523.56 606.112 505.656 647.453 505.656C702.141 505.656 729.484 544.556 729.484 622.355V858.195C729.484 873.82 738.273 890.91 755.852 909.465C762.362 916.301 787.264 919.719 830.559 919.719C870.598 919.719 900.057 917.766 918.938 913.859C919.914 910.279 920.402 902.954 920.402 891.887V788.859C920.728 785.604 920.891 782.674 920.891 780.07C920.891 761.516 910.311 752.238 889.152 752.238H826.164L836.906 640.422C839.51 611.776 846.672 590.617 858.391 576.945C893.547 519.654 949.699 491.008 1026.85 491.008C1094.56 491.008 1128.41 524.211 1128.41 590.617V956.34C1138.5 942.342 1153.8 926.717 1174.31 909.465C1184.4 901.001 1192.7 896.77 1199.21 896.77C1206.37 896.77 1217.44 902.629 1232.41 914.348C1248.69 927.043 1257.8 933.391 1259.76 933.391C1265.62 928.508 1275.22 920.858 1288.57 910.441C1301.26 901.327 1319.65 897.583 1343.74 899.211C1333.65 897.258 1315.91 907.674 1290.52 930.461C1287.59 933.065 1276.68 944.458 1257.8 964.641C1247.71 975.383 1239.74 980.754 1233.88 980.754C1231.6 980.754 1226.07 977.499 1217.28 970.988C1208.49 964.478 1202.79 960.409 1200.19 958.781C1186.84 952.596 1179.19 949.504 1177.24 949.504C1168.45 949.504 1152.17 960.897 1128.41 983.684H1041.98V601.848C1036.78 564.413 1013.66 545.695 972.648 545.695C958.326 545.695 943.026 549.927 926.75 558.391C909.497 567.18 897.453 577.434 890.617 589.152C879.224 608.358 873.853 649.862 874.504 713.664Z" fill="white"/>
<path d="M182 295C172.667 304.333 161.333 309 148 309C134.667 309 123.333 304.333 114 295C104.667 285 100 273.333 100 260C100 246 104.667 234.333 114 225C123.333 215.667 134.667 211 148 211C161.333 211 172.667 215.667 182 225C192 234.333 197 246 197 260C197 273.333 192 285 182 295ZM473.016 295C463.682 304.333 452.349 309 439.016 309C425.682 309 414.349 304.333 405.016 295C395.682 285 391.016 273.333 391.016 260C391.016 246 395.682 234.333 405.016 225C414.349 215.667 425.682 211 439.016 211C452.349 211 463.682 215.667 473.016 225C483.016 234.333 488.016 246 488.016 260C488.016 273.333 483.016 285 473.016 295ZM764.031 295C754.698 304.333 743.365 309 730.031 309C716.698 309 705.365 304.333 696.031 295C686.698 285 682.031 273.333 682.031 260C682.031 246 686.698 234.333 696.031 225C705.365 215.667 716.698 211 730.031 211C743.365 211 754.698 215.667 764.031 225C774.031 234.333 779.031 246 779.031 260C779.031 273.333 774.031 285 764.031 295Z" fill="white"/>
</svg>
