<svg width="1323" height="1783" viewBox="0 0 1323 1783" fill="none" xmlns="http://www.w3.org/2000/svg">
<path d="M688.723 3.63281C737.876 3.63281 762.453 24.1406 762.453 65.1562C762.453 79.1536 759.035 93.6393 752.199 108.613C760.012 111.868 768.964 113.496 779.055 113.496C828.534 113.496 881.268 75.8984 937.258 0.703125C907.961 57.9948 879.966 100.15 853.273 127.168C813.885 167.207 768.638 187.227 717.531 187.227C686.281 187.227 659.751 180.065 637.941 165.742C612.225 149.141 599.367 126.029 599.367 96.4062C599.367 71.3411 608.156 49.694 625.734 31.4648C642.987 12.9102 663.983 3.63281 688.723 3.63281Z" fill="white"/>
<path d="M182 1042C172.667 1051.33 161.333 1056 148 1056C134.667 1056 123.333 1051.33 114 1042C104.667 1032 100 1020.33 100 1007C100 993 104.667 981.333 114 972C123.333 962.667 134.667 958 148 958C161.333 958 172.667 962.667 182 972C192 981.333 197 993 197 1007C197 1020.33 192 1032 182 1042ZM473.016 1042C463.682 1051.33 452.349 1056 439.016 1056C425.682 1056 414.349 1051.33 405.016 1042C395.682 1032 391.016 1020.33 391.016 1007C391.016 993 395.682 981.333 405.016 972C414.349 962.667 425.682 958 439.016 958C452.349 958 463.682 962.667 473.016 972C483.016 981.333 488.016 993 488.016 1007C488.016 1020.33 483.016 1032 473.016 1042ZM764.031 1042C754.698 1051.33 743.365 1056 730.031 1056C716.698 1056 705.365 1051.33 696.031 1042C686.698 1032 682.031 1020.33 682.031 1007C682.031 993 686.698 981.333 696.031 972C705.365 962.667 716.698 958 730.031 958C743.365 958 754.698 962.667 764.031 972C774.031 981.333 779.031 993 779.031 1007C779.031 1020.33 774.031 1032 764.031 1042Z" fill="white"/>
</svg>
