<svg width="1323" height="2123" viewBox="0 0 1323 2123" fill="none" xmlns="http://www.w3.org/2000/svg">
<path d="M937.746 7.20703C868.085 104.538 815.188 186.243 779.055 252.324C713.951 371.139 672.935 468.47 656.008 544.316H543.215C571.535 473.678 630.943 375.046 721.438 248.418C778.404 168.991 842.857 86.3086 914.797 0.371094L937.746 7.20703Z" fill="white"/>
<path d="M182 1382C172.667 1391.33 161.333 1396 148 1396C134.667 1396 123.333 1391.33 114 1382C104.667 1372 100 1360.33 100 1347C100 1333 104.667 1321.33 114 1312C123.333 1302.67 134.667 1298 148 1298C161.333 1298 172.667 1302.67 182 1312C192 1321.33 197 1333 197 1347C197 1360.33 192 1372 182 1382ZM473.016 1382C463.682 1391.33 452.349 1396 439.016 1396C425.682 1396 414.349 1391.33 405.016 1382C395.682 1372 391.016 1360.33 391.016 1347C391.016 1333 395.682 1321.33 405.016 1312C414.349 1302.67 425.682 1298 439.016 1298C452.349 1298 463.682 1302.67 473.016 1312C483.016 1321.33 488.016 1333 488.016 1347C488.016 1360.33 483.016 1372 473.016 1382ZM764.031 1382C754.698 1391.33 743.365 1396 730.031 1396C716.698 1396 705.365 1391.33 696.031 1382C686.698 1372 682.031 1360.33 682.031 1347C682.031 1333 686.698 1321.33 696.031 1312C705.365 1302.67 716.698 1298 730.031 1298C743.365 1298 754.698 1302.67 764.031 1312C774.031 1321.33 779.031 1333 779.031 1347C779.031 1360.33 774.031 1372 764.031 1382Z" fill="white"/>
</svg>
