<svg width="1200" height="1000" viewBox="0 0 1200 1000" fill="none" xmlns="http://www.w3.org/2000/svg">
<path d="M345 849V220.5C345 220.5 353 124 245 124C137 124 143 283 143 283V849" stroke="white" stroke-width="100" stroke-linecap="round" stroke-linejoin="round"/>
<path d="M1058 849V283C1058 283 1048.75 124 936.5 124C824.25 124 815.5 283 815.5 283V726C815.5 726 815.5 849 694.75 849C574 849 574 726 574 726V283C574 283 574 124 513.5 124C413.5 124 345 220.5 345 220.5V849" stroke="white" stroke-width="100" stroke-linecap="round" stroke-linejoin="round"/>
</svg>
