<svg width="1200" height="1000" viewBox="0 0 1200 1000" fill="none" xmlns="http://www.w3.org/2000/svg">
<path d="M201 842C201 842 201 337.5 201 313.5C201 289.5 244 117 391 117C538 117 556.5 117 556.5 117" stroke="white" stroke-opacity="0.5" stroke-width="100" stroke-linecap="round" stroke-linejoin="round"/>
<path d="M995 842V230C995 230 996.75 117 884.5 117C772.25 117 773.5 230 773.5 230C773.5 230 773.5 697.5 773.5 719C773.5 740.5 777.5 842 672 842C624.067 842 579.5 840 506 788.5C454.5 752.415 429.245 697.141 421 626C399.5 440.5 556.5 313.5 556.5 313.5C556.5 313.5 484.5 362 449.5 289.5C414.5 217 556.5 117 556.5 117" stroke="white" stroke-width="20" stroke-linecap="round" stroke-linejoin="round" stroke-dasharray="40 40"/>
<circle cx="576" cy="117" r="40" fill="#1FA5F4"/>
<path d="M566.402 132V129.443L576.004 118.932C577.131 117.701 578.059 116.631 578.788 115.722C579.518 114.803 580.057 113.941 580.408 113.136C580.768 112.322 580.947 111.47 580.947 110.58C580.947 109.557 580.701 108.671 580.209 107.923C579.726 107.175 579.063 106.598 578.22 106.19C577.377 105.783 576.43 105.58 575.379 105.58C574.262 105.58 573.286 105.812 572.453 106.276C571.629 106.73 570.99 107.369 570.536 108.193C570.09 109.017 569.868 109.983 569.868 111.091H566.516C566.516 109.386 566.909 107.89 567.695 106.602C568.481 105.314 569.551 104.311 570.905 103.591C572.268 102.871 573.798 102.511 575.493 102.511C577.197 102.511 578.708 102.871 580.024 103.591C581.34 104.311 582.373 105.281 583.121 106.503C583.869 107.724 584.243 109.083 584.243 110.58C584.243 111.65 584.049 112.696 583.661 113.719C583.282 114.732 582.619 115.864 581.672 117.114C580.734 118.354 579.432 119.869 577.766 121.659L571.232 128.648V128.875H584.754V132H566.402Z" fill="white"/>
<circle cx="576" cy="321" r="40" fill="#1FA5F4"/>
<path d="M575.107 336.398C573.232 336.398 571.56 336.076 570.092 335.432C568.634 334.788 567.474 333.893 566.612 332.747C565.76 331.592 565.296 330.252 565.22 328.727H568.8C568.875 329.665 569.197 330.474 569.766 331.156C570.334 331.829 571.077 332.349 571.996 332.719C572.914 333.088 573.932 333.273 575.05 333.273C576.3 333.273 577.408 333.055 578.374 332.619C579.339 332.184 580.097 331.578 580.646 330.801C581.196 330.025 581.47 329.125 581.47 328.102C581.47 327.032 581.205 326.09 580.675 325.276C580.144 324.452 579.368 323.808 578.345 323.344C577.322 322.88 576.072 322.648 574.595 322.648H572.266V319.523H574.595C575.75 319.523 576.764 319.314 577.635 318.898C578.516 318.481 579.202 317.894 579.695 317.136C580.196 316.379 580.447 315.489 580.447 314.466C580.447 313.481 580.23 312.624 579.794 311.895C579.358 311.166 578.743 310.598 577.947 310.19C577.161 309.783 576.233 309.58 575.163 309.58C574.16 309.58 573.213 309.764 572.322 310.134C571.442 310.493 570.722 311.019 570.163 311.71C569.605 312.392 569.302 313.216 569.254 314.182H565.845C565.902 312.657 566.361 311.322 567.223 310.176C568.085 309.021 569.212 308.121 570.604 307.477C572.005 306.833 573.544 306.511 575.22 306.511C577.019 306.511 578.563 306.876 579.851 307.605C581.139 308.325 582.128 309.277 582.82 310.46C583.511 311.644 583.857 312.922 583.857 314.295C583.857 315.934 583.426 317.33 582.564 318.486C581.712 319.641 580.552 320.441 579.084 320.886V321.114C580.921 321.417 582.356 322.198 583.388 323.457C584.42 324.707 584.936 326.256 584.936 328.102C584.936 329.684 584.505 331.104 583.643 332.364C582.791 333.614 581.626 334.598 580.149 335.318C578.672 336.038 576.991 336.398 575.107 336.398Z" fill="white"/>
<circle cx="995" cy="850" r="40" fill="#1FA5F4"/>
<path d="M983.498 859.034V856.136L996.282 835.909H998.384V840.398H996.963L987.304 855.682V855.909H1004.52V859.034H983.498ZM997.191 865V858.153V856.804V835.909H1000.54V865H997.191Z" fill="white"/>
</svg>
