<svg width="1523" height="1036" viewBox="0 0 1523 1036" fill="none" xmlns="http://www.w3.org/2000/svg">
<path d="M853.996 876.262L821.281 908.977C802.076 928.182 764.803 937.785 709.465 937.785C604.973 937.785 552.727 898.885 552.727 821.086C552.727 767.701 579.419 705.852 632.805 635.539C659.497 600.383 706.047 549.602 772.453 483.195L775.383 507.121C683.26 600.22 637.199 680.949 637.199 749.309C637.199 791.301 653.475 820.598 686.027 837.199C709.139 848.918 744.458 854.777 791.984 854.777C810.865 854.777 823.234 853.15 829.094 849.895C837.883 845.012 842.277 833.456 842.277 815.227C842.277 795.695 834.465 768.84 818.84 734.66L895.5 671.672C895.5 698.039 899.406 726.034 907.219 755.656C916.659 790.812 929.029 815.878 944.328 830.852C967.44 853.638 1009.11 865.031 1069.33 865.031C1092.77 865.031 1114.41 859.986 1134.27 849.895C1159.01 837.199 1171.38 820.435 1171.38 799.602C1171.38 782.674 1162.1 764.771 1143.55 745.891L1061.03 683.879C1024.57 656.535 1006.34 631.307 1006.34 608.195C1006.34 583.781 1041.5 542.928 1111.81 485.637L1114.74 488.566C1105.62 499.309 1101.07 510.376 1101.07 521.77C1101.07 544.882 1119.13 569.621 1155.27 595.988C1166.66 603.801 1186.84 618.124 1215.81 638.957C1237.95 655.233 1249.02 673.951 1249.02 695.109C1249.02 729.615 1234.04 767.375 1204.09 808.391C1200.51 813.273 1173.82 844.198 1124.02 901.164C1098.62 930.135 1058.75 944.621 1004.39 944.621C974.113 944.621 945.956 939.413 919.914 928.996C888.664 916.626 866.691 899.048 853.996 876.262Z" fill="white"/>
<path d="M182 295C172.667 304.333 161.333 309 148 309C134.667 309 123.333 304.333 114 295C104.667 285 100 273.333 100 260C100 246 104.667 234.333 114 225C123.333 215.667 134.667 211 148 211C161.333 211 172.667 215.667 182 225C192 234.333 197 246 197 260C197 273.333 192 285 182 295ZM473.016 295C463.682 304.333 452.349 309 439.016 309C425.682 309 414.349 304.333 405.016 295C395.682 285 391.016 273.333 391.016 260C391.016 246 395.682 234.333 405.016 225C414.349 215.667 425.682 211 439.016 211C452.349 211 463.682 215.667 473.016 225C483.016 234.333 488.016 246 488.016 260C488.016 273.333 483.016 285 473.016 295ZM764.031 295C754.698 304.333 743.365 309 730.031 309C716.698 309 705.365 304.333 696.031 295C686.698 285 682.031 273.333 682.031 260C682.031 246 686.698 234.333 696.031 225C705.365 215.667 716.698 211 730.031 211C743.365 211 754.698 215.667 764.031 225C774.031 234.333 779.031 246 779.031 260C779.031 273.333 774.031 285 764.031 295Z" fill="white"/>
</svg>
