<svg width="1523" height="1172" viewBox="0 0 1523 1172" fill="none" xmlns="http://www.w3.org/2000/svg">
<path d="M1076.16 681.926C1076.16 666.626 1082.19 653.768 1094.23 643.352C1105.62 633.911 1119.13 629.191 1134.76 629.191C1165.03 629.191 1183.91 642.375 1191.4 668.742C1215.16 648.885 1227.04 630.331 1227.04 613.078C1227.04 592.245 1211.91 576.62 1181.63 566.203C1160.47 559.042 1136.71 555.461 1110.34 555.461C1058.26 555.461 1015.62 571.411 982.414 603.312C957.674 627.076 925.936 675.09 887.199 747.355C847.811 820.598 828.117 890.585 828.117 957.316C828.117 1075.81 891.431 1133.75 1018.06 1131.14C1082.19 1129.84 1137.04 1104.45 1182.61 1054.97C1223.62 1010.7 1244.46 964.152 1245.11 915.324H1333V958.293C1321.93 1015.91 1277.34 1067.02 1199.21 1111.61C1129.22 1151.65 1064.28 1171.67 1004.39 1171.67C925.936 1171.67 862.134 1150.68 812.98 1108.68C761.223 1064.09 735.344 1003.21 735.344 926.066C735.344 848.267 757.316 777.792 801.262 714.641C841.626 656.047 898.104 607.544 970.695 569.133C1022.78 541.464 1055.82 525.025 1069.82 519.816C1098.79 508.749 1131.67 503.215 1168.45 503.215C1243.32 503.215 1280.75 527.954 1280.75 577.434C1280.75 610.962 1264.97 645.305 1233.39 680.461C1200.84 716.268 1167.96 734.172 1134.76 734.172C1119.13 734.172 1105.46 729.289 1093.74 719.523C1082.02 709.758 1076.16 697.225 1076.16 681.926Z" fill="white"/>
<path d="M182 295C172.667 304.333 161.333 309 148 309C134.667 309 123.333 304.333 114 295C104.667 285 100 273.333 100 260C100 246 104.667 234.333 114 225C123.333 215.667 134.667 211 148 211C161.333 211 172.667 215.667 182 225C192 234.333 197 246 197 260C197 273.333 192 285 182 295ZM473.016 295C463.682 304.333 452.349 309 439.016 309C425.682 309 414.349 304.333 405.016 295C395.682 285 391.016 273.333 391.016 260C391.016 246 395.682 234.333 405.016 225C414.349 215.667 425.682 211 439.016 211C452.349 211 463.682 215.667 473.016 225C483.016 234.333 488.016 246 488.016 260C488.016 273.333 483.016 285 473.016 295ZM764.031 295C754.698 304.333 743.365 309 730.031 309C716.698 309 705.365 304.333 696.031 295C686.698 285 682.031 273.333 682.031 260C682.031 246 686.698 234.333 696.031 225C705.365 215.667 716.698 211 730.031 211C743.365 211 754.698 215.667 764.031 225C774.031 234.333 779.031 246 779.031 260C779.031 273.333 774.031 285 764.031 295Z" fill="white"/>
</svg>
