<svg width="1210" height="1000" viewBox="0 0 1210 1000" fill="none" xmlns="http://www.w3.org/2000/svg">
<path d="M50 835.908V258.531C50 258.531 50.0007 164 141.749 164C233.498 164 233.963 258.531 233.963 258.531V835.908H353.053C353.053 835.908 379.177 835.908 437.853 795.593C469.883 773.586 489.288 742.304 489.288 742.304H427.195" stroke="white" stroke-opacity="0.5" stroke-width="100" stroke-linecap="round" stroke-linejoin="round"/>
<path d="M724.224 227.947C724.224 227.947 849.801 164 897.066 164C944.331 164 947.575 227.947 947.575 227.947V835.908M724.224 227.947V835.908M724.224 227.947C724.224 227.947 724.224 164 644.985 164C565.746 164 562.966 227.947 562.966 227.947M562.966 227.947V303.015M562.966 227.947C562.966 227.947 562.966 164 504.579 164C446.656 164 446.656 227.947 446.656 227.947V303.015" stroke="white" stroke-opacity="0.5" stroke-width="100" stroke-linecap="round" stroke-linejoin="round"/>
<path d="M947.574 835.908V227.947C947.574 227.947 1033.76 164 1101.88 164C1170 164 1170 227.947 1170 227.947V835.908" stroke="white" stroke-width="20" stroke-linecap="round" stroke-linejoin="round" stroke-dasharray="40 40"/>
<circle cx="947" cy="850" r="40" fill="#1FA5F4"/>
<path d="M946.434 865.398C944.768 865.398 943.267 865.066 941.931 864.403C940.596 863.741 939.526 862.831 938.721 861.676C937.916 860.521 937.476 859.205 937.4 857.727H940.809C940.942 859.044 941.538 860.133 942.599 860.994C943.669 861.847 944.948 862.273 946.434 862.273C947.627 862.273 948.688 861.993 949.616 861.435C950.554 860.876 951.288 860.109 951.818 859.134C952.358 858.149 952.627 857.036 952.627 855.795C952.627 854.527 952.348 853.395 951.789 852.401C951.24 851.397 950.483 850.606 949.517 850.028C948.551 849.451 947.448 849.157 946.207 849.148C945.317 849.138 944.403 849.276 943.466 849.56C942.528 849.834 941.756 850.189 941.15 850.625L937.855 850.227L939.616 835.909H954.73V839.034H942.571L941.548 847.614H941.718C942.315 847.14 943.063 846.747 943.963 846.435C944.862 846.122 945.8 845.966 946.775 845.966C948.556 845.966 950.142 846.392 951.534 847.244C952.935 848.087 954.034 849.242 954.829 850.71C955.634 852.178 956.037 853.854 956.037 855.739C956.037 857.595 955.62 859.252 954.787 860.71C953.963 862.159 952.826 863.305 951.377 864.148C949.929 864.981 948.281 865.398 946.434 865.398Z" fill="white"/>
<circle cx="1170" cy="850" r="40" fill="#1FA5F4"/>
<path d="M1169.69 865.398C1168.5 865.379 1167.3 865.152 1166.11 864.716C1164.92 864.28 1163.83 863.546 1162.84 862.514C1161.86 861.473 1161.07 860.066 1160.47 858.295C1159.87 856.515 1159.58 854.28 1159.58 851.591C1159.58 849.015 1159.82 846.733 1160.3 844.744C1160.78 842.746 1161.48 841.065 1162.4 839.702C1163.32 838.329 1164.43 837.287 1165.73 836.577C1167.03 835.866 1168.51 835.511 1170.14 835.511C1171.77 835.511 1173.22 835.838 1174.49 836.491C1175.77 837.135 1176.81 838.035 1177.62 839.19C1178.42 840.346 1178.94 841.676 1179.18 843.182H1175.71C1175.39 841.875 1174.77 840.791 1173.84 839.929C1172.91 839.067 1171.68 838.636 1170.14 838.636C1167.89 838.636 1166.12 839.616 1164.82 841.577C1163.53 843.537 1162.88 846.288 1162.87 849.83H1163.1C1163.63 849.025 1164.26 848.338 1164.99 847.77C1165.73 847.192 1166.54 846.747 1167.43 846.435C1168.32 846.122 1169.26 845.966 1170.26 845.966C1171.92 845.966 1173.45 846.383 1174.83 847.216C1176.21 848.04 1177.32 849.181 1178.16 850.639C1178.99 852.088 1179.41 853.75 1179.41 855.625C1179.41 857.424 1179 859.072 1178.2 860.568C1177.39 862.055 1176.26 863.239 1174.8 864.119C1173.35 864.991 1171.65 865.417 1169.69 865.398ZM1169.69 862.273C1170.88 862.273 1171.95 861.974 1172.9 861.378C1173.86 860.781 1174.61 859.981 1175.16 858.977C1175.72 857.973 1176 856.856 1176 855.625C1176 854.422 1175.73 853.329 1175.19 852.344C1174.66 851.349 1173.92 850.559 1172.99 849.972C1172.06 849.384 1171 849.091 1169.8 849.091C1168.9 849.091 1168.07 849.271 1167.29 849.631C1166.51 849.981 1165.83 850.464 1165.24 851.08C1164.67 851.695 1164.21 852.401 1163.88 853.196C1163.55 853.982 1163.38 854.811 1163.38 855.682C1163.38 856.837 1163.65 857.917 1164.19 858.92C1164.74 859.924 1165.49 860.734 1166.44 861.349C1167.39 861.965 1168.48 862.273 1169.69 862.273Z" fill="white"/>
</svg>
