<svg width="1200" height="1000" viewBox="0 0 1200 1000" fill="none" xmlns="http://www.w3.org/2000/svg">
<path d="M172 849V283C172 283 181.25 124 293.5 124C405.75 124 414.5 283 414.5 283C414.5 283 414.5 450.911 414.5 558.5M414.5 558.5C535 558.5 650 739.5 695 801.5C740 863.5 801.5 829 801.5 801.5C801.5 774 802.5 346.5 801.5 294C800.5 241.5 648.5 240 648.5 240M414.5 558.5C414.5 558.5 274.5 558.5 274.5 703.5C274.5 848.5 414.5 849 414.5 849C414.5 849 414.5 671.947 414.5 558.5Z" stroke="white" stroke-width="100" stroke-linecap="round" stroke-linejoin="round"/>
<path d="M1030 849V283C1030 283 1030 103.5 890 136.5C750 169.5 648.5 240 648.5 240" stroke="white" stroke-width="100" stroke-linecap="round" stroke-linejoin="round"/>
</svg>
