<svg width="1523" height="1036" viewBox="0 0 1523 1036" fill="none" xmlns="http://www.w3.org/2000/svg">
<path d="M632.805 956.34V638.469C632.805 600.057 646.477 566.203 673.82 536.906C701.164 507.609 733.879 492.961 771.965 492.961C796.379 492.961 812.98 505.005 821.77 529.094C867.342 503.052 903.312 490.031 929.68 490.031C955.07 490.031 975.09 501.099 989.738 523.234C1002.76 542.44 1009.27 565.389 1009.27 592.082V927.531C1013.18 924.927 1032.38 908.163 1066.89 877.238C1088.7 857.707 1107.25 847.941 1122.55 847.941C1137.85 847.941 1157.38 855.591 1181.14 870.891C1204.91 886.19 1223.62 893.84 1237.3 893.84C1285.8 893.84 1331.54 872.355 1374.5 829.387C1361.48 845.663 1337.88 874.471 1303.7 915.812C1278.96 945.109 1246.74 959.758 1207.02 959.758C1194 959.758 1180.33 953.247 1166.01 940.227C1144.85 921.021 1130.69 909.302 1123.53 905.07C1121.9 904.094 1119.78 903.605 1117.18 903.605C1109.04 903.605 1090.49 912.395 1061.52 929.973C1032.22 947.876 1015.13 956.828 1010.25 956.828H925.285V594.523C925.285 556.438 911.776 537.395 884.758 537.395C870.435 537.395 851.229 542.44 827.141 552.531C830.07 582.479 831.535 602.824 831.535 613.566V956.34H752.922V623.332C752.922 564.087 740.552 536.418 715.812 540.324C683.911 545.533 664.706 568.807 658.195 610.148V956.34H632.805Z" fill="white"/>
<path d="M182 295C172.667 304.333 161.333 309 148 309C134.667 309 123.333 304.333 114 295C104.667 285 100 273.333 100 260C100 246 104.667 234.333 114 225C123.333 215.667 134.667 211 148 211C161.333 211 172.667 215.667 182 225C192 234.333 197 246 197 260C197 273.333 192 285 182 295ZM473.016 295C463.682 304.333 452.349 309 439.016 309C425.682 309 414.349 304.333 405.016 295C395.682 285 391.016 273.333 391.016 260C391.016 246 395.682 234.333 405.016 225C414.349 215.667 425.682 211 439.016 211C452.349 211 463.682 215.667 473.016 225C483.016 234.333 488.016 246 488.016 260C488.016 273.333 483.016 285 473.016 295ZM764.031 295C754.698 304.333 743.365 309 730.031 309C716.698 309 705.365 304.333 696.031 295C686.698 285 682.031 273.333 682.031 260C682.031 246 686.698 234.333 696.031 225C705.365 215.667 716.698 211 730.031 211C743.365 211 754.698 215.667 764.031 225C774.031 234.333 779.031 246 779.031 260C779.031 273.333 774.031 285 764.031 295Z" fill="white"/>
</svg>
