<svg width="1200" height="1000" viewBox="0 0 1200 1000" fill="none" xmlns="http://www.w3.org/2000/svg">
<path d="M195 850V284C195 284 204.25 125 316.5 125C428.75 125 437.5 284 437.5 284V486V850" stroke="white" stroke-opacity="0.5" stroke-width="100" stroke-linecap="round" stroke-linejoin="round"/>
<path d="M1007 850V284C1007 284 1007 125 843 125C679 125 679 284 679 284V455M437.5 486L679 455M679 455V850C679 850 826 850 826 653C826 455 679 455 679 455Z" stroke="white" stroke-width="20" stroke-linecap="round" stroke-linejoin="round" stroke-dasharray="50 50"/>
<circle cx="1007" cy="850" r="40" fill="#1FA5F4"/>
<path d="M995.498 859.034V856.136L1008.28 835.909H1010.38V840.398H1008.96L999.304 855.682V855.909H1016.52V859.034H995.498ZM1009.19 865V858.153V856.804V835.909H1012.54V865H1009.19Z" fill="white"/>
<circle cx="438" cy="491" r="40" fill="#1FA5F4"/>
<path d="M437.107 506.398C435.232 506.398 433.56 506.076 432.092 505.432C430.634 504.788 429.474 503.893 428.612 502.747C427.76 501.592 427.296 500.252 427.22 498.727H430.8C430.875 499.665 431.197 500.474 431.766 501.156C432.334 501.829 433.077 502.349 433.996 502.719C434.914 503.088 435.932 503.273 437.05 503.273C438.3 503.273 439.408 503.055 440.374 502.619C441.339 502.184 442.097 501.578 442.646 500.801C443.196 500.025 443.47 499.125 443.47 498.102C443.47 497.032 443.205 496.09 442.675 495.276C442.144 494.452 441.368 493.808 440.345 493.344C439.322 492.88 438.072 492.648 436.595 492.648H434.266V489.523H436.595C437.75 489.523 438.764 489.314 439.635 488.898C440.516 488.481 441.202 487.894 441.695 487.136C442.196 486.379 442.447 485.489 442.447 484.466C442.447 483.481 442.23 482.624 441.794 481.895C441.358 481.166 440.743 480.598 439.947 480.19C439.161 479.783 438.233 479.58 437.163 479.58C436.16 479.58 435.213 479.764 434.322 480.134C433.442 480.493 432.722 481.019 432.163 481.71C431.605 482.392 431.302 483.216 431.254 484.182H427.845C427.902 482.657 428.361 481.322 429.223 480.176C430.085 479.021 431.212 478.121 432.604 477.477C434.005 476.833 435.544 476.511 437.22 476.511C439.019 476.511 440.563 476.876 441.851 477.605C443.139 478.325 444.128 479.277 444.82 480.46C445.511 481.644 445.857 482.922 445.857 484.295C445.857 485.934 445.426 487.33 444.564 488.486C443.712 489.641 442.552 490.441 441.084 490.886V491.114C442.921 491.417 444.356 492.198 445.388 493.457C446.42 494.707 446.936 496.256 446.936 498.102C446.936 499.684 446.505 501.104 445.643 502.364C444.791 503.614 443.626 504.598 442.149 505.318C440.672 506.038 438.991 506.398 437.107 506.398Z" fill="white"/>
</svg>
