<svg width="1200" height="1000" viewBox="0 0 1200 1000" fill="none" xmlns="http://www.w3.org/2000/svg">
<path d="M154 849.584V215.584C154 215.584 163.25 124.584 275.5 124.584C387.75 124.584 396.5 215.584 396.5 215.584C396.5 215.584 396.5 699.584 396.5 774.584C396.5 849.584 461.5 846.584 502 822.585C542.5 798.585 618.5 680.585 618.5 680.585C618.5 680.585 648 789.084 681 822.585C714 856.085 824.5 845.585 824.5 774.584C824.5 703.584 825.9 343.085 824.5 269.585C823.1 196.085 704 215.584 704 215.584" stroke="white" stroke-width="100" stroke-linecap="round" stroke-linejoin="round"/>
<path d="M1044.5 849.585V283.584C1044.5 283.584 1044.5 112.782 955.5 124.585C866.5 136.387 704 215.584 704 215.584" stroke="white" stroke-width="100" stroke-linecap="round" stroke-linejoin="round"/>
</svg>
