<svg width="1200" height="1000" viewBox="0 0 1200 1000" fill="none" xmlns="http://www.w3.org/2000/svg">
<path d="M132 808.908V231.531C132 231.531 132.001 137 223.749 137C315.498 137 315.963 231.531 315.963 231.531V808.908H435.053C435.053 808.908 461.177 808.908 519.853 768.593C551.883 746.586 571.288 715.304 571.288 715.304H509.195" stroke="white" stroke-opacity="0.5" stroke-width="100" stroke-linecap="round" stroke-linejoin="round"/>
<path d="M806.224 200.947C806.224 200.947 931.801 137 979.066 137C1026.33 137 1029.57 200.947 1029.57 200.947V808.908M806.224 200.947V808.908M806.224 200.947C806.224 200.947 806.224 137 726.985 137C647.746 137 644.966 200.947 644.966 200.947M644.966 200.947V276.015M644.966 200.947C644.966 200.947 644.966 137 586.579 137C528.656 137 528.656 200.947 528.656 200.947V276.015" stroke="white" stroke-width="20" stroke-linecap="round" stroke-linejoin="round" stroke-dasharray="40 40"/>
<circle cx="533" cy="297" r="40" fill="#1FA5F4"/>
<path d="M532.107 312.398C530.232 312.398 528.56 312.076 527.092 311.432C525.634 310.788 524.474 309.893 523.612 308.747C522.76 307.592 522.296 306.252 522.22 304.727H525.8C525.875 305.665 526.197 306.474 526.766 307.156C527.334 307.829 528.077 308.349 528.996 308.719C529.914 309.088 530.932 309.273 532.05 309.273C533.3 309.273 534.408 309.055 535.374 308.619C536.339 308.184 537.097 307.578 537.646 306.801C538.196 306.025 538.47 305.125 538.47 304.102C538.47 303.032 538.205 302.09 537.675 301.276C537.144 300.452 536.368 299.808 535.345 299.344C534.322 298.88 533.072 298.648 531.595 298.648H529.266V295.523H531.595C532.75 295.523 533.764 295.314 534.635 294.898C535.516 294.481 536.202 293.894 536.695 293.136C537.196 292.379 537.447 291.489 537.447 290.466C537.447 289.481 537.23 288.624 536.794 287.895C536.358 287.166 535.743 286.598 534.947 286.19C534.161 285.783 533.233 285.58 532.163 285.58C531.16 285.58 530.213 285.764 529.322 286.134C528.442 286.493 527.722 287.019 527.163 287.71C526.605 288.392 526.302 289.216 526.254 290.182H522.845C522.902 288.657 523.361 287.322 524.223 286.176C525.085 285.021 526.212 284.121 527.604 283.477C529.005 282.833 530.544 282.511 532.22 282.511C534.019 282.511 535.563 282.876 536.851 283.605C538.139 284.325 539.128 285.277 539.82 286.46C540.511 287.644 540.857 288.922 540.857 290.295C540.857 291.934 540.426 293.33 539.564 294.486C538.712 295.641 537.552 296.441 536.084 296.886V297.114C537.921 297.417 539.356 298.198 540.388 299.457C541.42 300.707 541.936 302.256 541.936 304.102C541.936 305.684 541.505 307.104 540.643 308.364C539.791 309.614 538.626 310.598 537.149 311.318C535.672 312.038 533.991 312.398 532.107 312.398Z" fill="white"/>
<circle cx="807" cy="823" r="40" fill="#1FA5F4"/>
<path d="M795.498 832.034V829.136L808.282 808.909H810.384V813.398H808.963L799.304 828.682V828.909H816.52V832.034H795.498ZM809.191 838V831.153V829.804V808.909H812.543V838H809.191Z" fill="white"/>
<circle cx="1029" cy="823" r="40" fill="#1FA5F4"/>
<path d="M1028.43 838.398C1026.77 838.398 1025.27 838.066 1023.93 837.403C1022.6 836.741 1021.53 835.831 1020.72 834.676C1019.92 833.521 1019.48 832.205 1019.4 830.727H1022.81C1022.94 832.044 1023.54 833.133 1024.6 833.994C1025.67 834.847 1026.95 835.273 1028.43 835.273C1029.63 835.273 1030.69 834.993 1031.62 834.435C1032.55 833.876 1033.29 833.109 1033.82 832.134C1034.36 831.149 1034.63 830.036 1034.63 828.795C1034.63 827.527 1034.35 826.395 1033.79 825.401C1033.24 824.397 1032.48 823.606 1031.52 823.028C1030.55 822.451 1029.45 822.157 1028.21 822.148C1027.32 822.138 1026.4 822.276 1025.47 822.56C1024.53 822.834 1023.76 823.189 1023.15 823.625L1019.85 823.227L1021.62 808.909H1036.73V812.034H1024.57L1023.55 820.614H1023.72C1024.31 820.14 1025.06 819.747 1025.96 819.435C1026.86 819.122 1027.8 818.966 1028.78 818.966C1030.56 818.966 1032.14 819.392 1033.53 820.244C1034.94 821.087 1036.03 822.242 1036.83 823.71C1037.63 825.178 1038.04 826.854 1038.04 828.739C1038.04 830.595 1037.62 832.252 1036.79 833.71C1035.96 835.159 1034.83 836.305 1033.38 837.148C1031.93 837.981 1030.28 838.398 1028.43 838.398Z" fill="white"/>
</svg>
