<svg width="1523" height="1036" viewBox="0 0 1523 1036" fill="none" xmlns="http://www.w3.org/2000/svg">
<path d="M1333 991.008H1241.69V589.152C1241.69 560.181 1224.11 545.695 1188.96 545.695C1164.54 545.695 1135.25 552.206 1101.07 565.227C1071.12 576.62 1050.94 586.874 1040.52 595.988V991.008H959.953V638.957C959.953 578.085 955.233 547.648 945.793 547.648C944.491 547.648 943.514 547.811 942.863 548.137L859.367 580.852C859.693 565.552 870.76 552.043 892.57 540.324C910.148 532.512 927.727 524.699 945.305 516.887C970.044 505.168 992.18 499.309 1011.71 499.309C1034.82 499.309 1046.87 523.56 1047.84 572.062C1092.77 548.625 1164.54 523.723 1263.18 497.355C1271.64 495.077 1279.61 493.938 1287.1 493.938C1317.7 493.938 1333 519.328 1333 570.109V991.008Z" fill="white"/>
<path d="M182 295C172.667 304.333 161.333 309 148 309C134.667 309 123.333 304.333 114 295C104.667 285 100 273.333 100 260C100 246 104.667 234.333 114 225C123.333 215.667 134.667 211 148 211C161.333 211 172.667 215.667 182 225C192 234.333 197 246 197 260C197 273.333 192 285 182 295ZM473.016 295C463.682 304.333 452.349 309 439.016 309C425.682 309 414.349 304.333 405.016 295C395.682 285 391.016 273.333 391.016 260C391.016 246 395.682 234.333 405.016 225C414.349 215.667 425.682 211 439.016 211C452.349 211 463.682 215.667 473.016 225C483.016 234.333 488.016 246 488.016 260C488.016 273.333 483.016 285 473.016 295ZM764.031 295C754.698 304.333 743.365 309 730.031 309C716.698 309 705.365 304.333 696.031 295C686.698 285 682.031 273.333 682.031 260C682.031 246 686.698 234.333 696.031 225C705.365 215.667 716.698 211 730.031 211C743.365 211 754.698 215.667 764.031 225C774.031 234.333 779.031 246 779.031 260C779.031 273.333 774.031 285 764.031 295Z" fill="white"/>
</svg>
