<svg width="2411" height="1448" viewBox="0 0 2411 1448" fill="none" xmlns="http://www.w3.org/2000/svg">
<path d="M390.137 88.6172C435.71 51.5078 462.402 30.8372 470.215 26.6055C493.978 13.5846 527.507 7.07422 570.801 7.07422C617.35 7.07422 647.949 27.2565 662.598 67.6211C670.736 89.7565 674.805 129.145 674.805 185.785V1357.17L725.098 1331.29C726.074 1333.25 727.539 1335.85 729.492 1339.11L556.152 1447.02V185.785C556.152 121.007 530.599 88.6172 479.492 88.6172C454.753 88.6172 433.757 96.4297 416.504 112.055C398.275 128.005 389.16 148.188 389.16 172.602V777.094H316.895V172.602C316.895 116.612 293.945 88.6172 248.047 88.6172C216.146 88.6172 200.195 110.102 200.195 153.07V777.094H148.926V153.07C148.926 110.753 157.552 76.8984 174.805 51.5078C195.312 21.8854 225.749 7.07422 266.113 7.07422C297.038 7.07422 323.405 13.0964 345.215 25.1406C371.257 39.4635 386.23 60.6224 390.137 88.6172ZM1774.41 90.5703C1770.18 100.661 1767.09 109.613 1765.14 117.426L1585.45 254.145C1593.26 220.29 1605.31 188.715 1621.58 159.418C1641.44 123.611 1681.15 88.2917 1740.72 53.4609C1800.29 18.3047 1850.42 0.726562 1891.11 0.726562C1919.11 0.726562 1941.57 17.9792 1958.5 52.4844C1972.17 80.4792 1979 109.939 1979 140.863C1979 220.616 1947.43 317.133 1884.28 430.414C1827.64 531.977 1772.95 603.591 1720.21 645.258C1729.98 643.305 1739.58 642.328 1749.02 642.328C1767.9 642.328 1794.11 648.188 1827.64 659.906C1857.58 670.323 1886.72 675.531 1915.04 675.531C1963.87 675.531 2003.42 660.72 2033.69 631.098C2054.2 607.009 2074.87 582.921 2095.7 558.832C2067.06 619.379 2041.5 671.462 2019.04 715.082C1999.51 753.493 1968.59 774.815 1926.27 779.047C1920.08 779.698 1889.65 773.676 1834.96 760.98C1777.34 747.634 1736.33 740.961 1711.91 740.961C1656.25 740.961 1601.07 752.191 1546.39 774.652C1687.66 666.905 1787.92 515.701 1847.17 321.039C1859.86 279.372 1866.21 236.566 1866.21 192.621C1866.21 122.634 1845.05 87.6406 1802.73 87.6406C1799.48 87.6406 1794.76 88.1289 1788.57 89.1055C1782.39 90.082 1777.67 90.5703 1774.41 90.5703Z" fill="white"/>
<path d="M897 668C887.667 677.333 876.333 682 863 682C849.667 682 838.333 677.333 829 668C819.667 658 815 646.333 815 633C815 619 819.667 607.333 829 598C838.333 588.667 849.667 584 863 584C876.333 584 887.667 588.667 897 598C907 607.333 912 619 912 633C912 646.333 907 658 897 668ZM1188.02 668C1178.68 677.333 1167.35 682 1154.02 682C1140.68 682 1129.35 677.333 1120.02 668C1110.68 658 1106.02 646.333 1106.02 633C1106.02 619 1110.68 607.333 1120.02 598C1129.35 588.667 1140.68 584 1154.02 584C1167.35 584 1178.68 588.667 1188.02 598C1198.02 607.333 1203.02 619 1203.02 633C1203.02 646.333 1198.02 658 1188.02 668ZM1479.03 668C1469.7 677.333 1458.36 682 1445.03 682C1431.7 682 1420.36 677.333 1411.03 668C1401.7 658 1397.03 646.333 1397.03 633C1397.03 619 1401.7 607.333 1411.03 598C1420.36 588.667 1431.7 584 1445.03 584C1458.36 584 1469.7 588.667 1479.03 598C1489.03 607.333 1494.03 619 1494.03 633C1494.03 646.333 1489.03 658 1479.03 668Z" fill="white"/>
</svg>
