<svg width="911" height="1061" viewBox="0 0 911 1061" fill="none" xmlns="http://www.w3.org/2000/svg">
<path d="M666.93 631.633C560.484 607.544 457.783 595.5 358.824 595.5C282.652 595.5 244.566 627.076 244.566 690.227C244.566 774.536 267.678 840.129 313.902 887.004C358.499 932.251 436.949 971.639 549.254 1005.17C554.137 1006.8 559.02 1007.61 563.902 1007.61C592.223 1007.61 617.613 985.799 640.074 942.18C657.978 907.674 666.93 869.426 666.93 827.434V631.633ZM902.281 502.238L910.094 514.934C896.422 539.348 882.913 561.32 869.566 580.852C848.733 611.776 821.878 628.703 789 631.633V857.707C789 907.837 776.63 951.457 751.891 988.566C723.245 1031.54 684.02 1054.16 634.215 1056.44C576.598 1059.04 511.819 1047.16 439.879 1020.79C360.126 991.496 295.185 951.945 245.055 902.141C185.81 843.547 156.188 777.954 156.188 705.363C156.188 648.723 180.764 602.661 229.918 567.18C274.84 534.302 328.062 517.863 389.586 517.863C465.107 517.863 523.701 522.583 565.367 532.023C620.706 544.393 654.56 551.555 666.93 553.508C667.581 520.305 667.581 471.639 666.93 407.512H789V548.137C822.529 549.439 844.99 547.323 856.383 541.789C864.846 537.557 880.146 524.374 902.281 502.238Z" fill="white"/>
<path d="M182 295C172.667 304.333 161.333 309 148 309C134.667 309 123.333 304.333 114 295C104.667 285 100 273.333 100 260C100 246 104.667 234.333 114 225C123.333 215.667 134.667 211 148 211C161.333 211 172.667 215.667 182 225C192 234.333 197 246 197 260C197 273.333 192 285 182 295ZM473.016 295C463.682 304.333 452.349 309 439.016 309C425.682 309 414.349 304.333 405.016 295C395.682 285 391.016 273.333 391.016 260C391.016 246 395.682 234.333 405.016 225C414.349 215.667 425.682 211 439.016 211C452.349 211 463.682 215.667 473.016 225C483.016 234.333 488.016 246 488.016 260C488.016 273.333 483.016 285 473.016 295ZM764.031 295C754.698 304.333 743.365 309 730.031 309C716.698 309 705.365 304.333 696.031 295C686.698 285 682.031 273.333 682.031 260C682.031 246 686.698 234.333 696.031 225C705.365 215.667 716.698 211 730.031 211C743.365 211 754.698 215.667 764.031 225C774.031 234.333 779.031 246 779.031 260C779.031 273.333 774.031 285 764.031 295Z" fill="white"/>
</svg>
