<svg width="1200" height="1000" viewBox="0 0 1200 1000" fill="none" xmlns="http://www.w3.org/2000/svg">
<path d="M112 850V567V284C112 284 121.25 125 233.5 125C345.75 125 354.5 284 354.5 284C354.5 284 354.5 680.5 354.5 779.5C354.5 878.5 708.5 850 708.5 850C708.5 850 708.5 664 708.5 563C708.5 462 570.5 462 570.5 462V237.5C570.5 237.5 570.5 125 715.5 125C860.5 125 860 237.5 860 237.5V850" stroke="white" stroke-opacity="0.5" stroke-width="100" stroke-linecap="round" stroke-linejoin="round"/>
<path d="M860 850V237.5C860 237.5 860 125 973 125C1086 125 1086 237.5 1086 237.5V850" stroke="white" stroke-width="20" stroke-linecap="round" stroke-linejoin="round" stroke-dasharray="40 40"/>
<circle cx="860" cy="854" r="40" fill="#1FA5F4"/>
<path d="M850.402 869V866.443L860.004 855.932C861.131 854.701 862.059 853.631 862.788 852.722C863.518 851.803 864.057 850.941 864.408 850.136C864.768 849.322 864.947 848.47 864.947 847.58C864.947 846.557 864.701 845.671 864.209 844.923C863.726 844.175 863.063 843.598 862.22 843.19C861.377 842.783 860.43 842.58 859.379 842.58C858.262 842.58 857.286 842.812 856.453 843.276C855.629 843.73 854.99 844.369 854.536 845.193C854.09 846.017 853.868 846.983 853.868 848.091H850.516C850.516 846.386 850.909 844.89 851.695 843.602C852.481 842.314 853.551 841.311 854.905 840.591C856.268 839.871 857.798 839.511 859.493 839.511C861.197 839.511 862.708 839.871 864.024 840.591C865.34 841.311 866.373 842.281 867.121 843.503C867.869 844.724 868.243 846.083 868.243 847.58C868.243 848.65 868.049 849.696 867.661 850.719C867.282 851.732 866.619 852.864 865.672 854.114C864.734 855.354 863.432 856.869 861.766 858.659L855.232 865.648V865.875H868.754V869H850.402Z" fill="white"/>
<circle cx="1087" cy="854" r="40" fill="#1FA5F4"/>
<path d="M1086.11 869.398C1084.23 869.398 1082.56 869.076 1081.09 868.432C1079.63 867.788 1078.47 866.893 1077.61 865.747C1076.76 864.592 1076.3 863.252 1076.22 861.727H1079.8C1079.88 862.665 1080.2 863.474 1080.77 864.156C1081.33 864.829 1082.08 865.349 1083 865.719C1083.91 866.088 1084.93 866.273 1086.05 866.273C1087.3 866.273 1088.41 866.055 1089.37 865.619C1090.34 865.184 1091.1 864.578 1091.65 863.801C1092.2 863.025 1092.47 862.125 1092.47 861.102C1092.47 860.032 1092.21 859.09 1091.67 858.276C1091.14 857.452 1090.37 856.808 1089.35 856.344C1088.32 855.88 1087.07 855.648 1085.6 855.648H1083.27V852.523H1085.6C1086.75 852.523 1087.76 852.314 1088.63 851.898C1089.52 851.481 1090.2 850.894 1090.69 850.136C1091.2 849.379 1091.45 848.489 1091.45 847.466C1091.45 846.481 1091.23 845.624 1090.79 844.895C1090.36 844.166 1089.74 843.598 1088.95 843.19C1088.16 842.783 1087.23 842.58 1086.16 842.58C1085.16 842.58 1084.21 842.764 1083.32 843.134C1082.44 843.493 1081.72 844.019 1081.16 844.71C1080.6 845.392 1080.3 846.216 1080.25 847.182H1076.85C1076.9 845.657 1077.36 844.322 1078.22 843.176C1079.08 842.021 1080.21 841.121 1081.6 840.477C1083.01 839.833 1084.54 839.511 1086.22 839.511C1088.02 839.511 1089.56 839.876 1090.85 840.605C1092.14 841.325 1093.13 842.277 1093.82 843.46C1094.51 844.644 1094.86 845.922 1094.86 847.295C1094.86 848.934 1094.43 850.33 1093.56 851.486C1092.71 852.641 1091.55 853.441 1090.08 853.886V854.114C1091.92 854.417 1093.36 855.198 1094.39 856.457C1095.42 857.707 1095.94 859.256 1095.94 861.102C1095.94 862.684 1095.51 864.104 1094.64 865.364C1093.79 866.614 1092.63 867.598 1091.15 868.318C1089.67 869.038 1087.99 869.398 1086.11 869.398Z" fill="white"/>
</svg>
