<svg width="1200" height="1000" viewBox="0 0 1200 1000" fill="none" xmlns="http://www.w3.org/2000/svg">
<path d="M201 842C201 842 201 337.5 201 313.5C201 289.5 244 117 391 117C538 117 556.5 117 556.5 117C556.5 117 414.5 217 449.5 289.5C484.5 362 556.5 313.5 556.5 313.5" stroke="white" stroke-width="100" stroke-linecap="round" stroke-linejoin="round"/>
<path d="M995 842V230C995 230 996.75 117 884.5 117C772.25 117 773.5 230 773.5 230C773.5 230 773.5 697.5 773.5 719C773.5 740.5 777.5 842 672 842C624.067 842 579.5 840 506 788.5C454.5 752.415 429.245 697.141 421 626C399.5 440.5 556.5 313.5 556.5 313.5" stroke="white" stroke-width="100" stroke-linecap="round" stroke-linejoin="round"/>
</svg>
