<svg width="1200" height="1000" viewBox="0 0 1200 1000" fill="none" xmlns="http://www.w3.org/2000/svg">
<path d="M812.5 849V283C812.5 283 812 124 937.5 124C1063 124 1063 283 1063 283V849" stroke="white" stroke-width="20" stroke-linecap="round" stroke-linejoin="round" stroke-dasharray="53 53"/>
<path d="M138 849V283C138 283 147.25 124 259.5 124C371.75 124 380.5 283 380.5 283V726C380.5 726 380.5 849 501.25 849C622 849 622 726 622 726V283C622 283 616.5 124 714.5 124C812.5 124 812.5 283 812.5 283V849" stroke="white" stroke-opacity="0.5" stroke-width="100" stroke-linecap="round" stroke-linejoin="round"/>
<circle cx="814" cy="849" r="40" fill="#1FA5F4"/>
<path d="M804.402 864V861.443L814.004 850.932C815.131 849.701 816.059 848.631 816.788 847.722C817.518 846.803 818.057 845.941 818.408 845.136C818.768 844.322 818.947 843.47 818.947 842.58C818.947 841.557 818.701 840.671 818.209 839.923C817.726 839.175 817.063 838.598 816.22 838.19C815.377 837.783 814.43 837.58 813.379 837.58C812.262 837.58 811.286 837.812 810.453 838.276C809.629 838.73 808.99 839.369 808.536 840.193C808.09 841.017 807.868 841.983 807.868 843.091H804.516C804.516 841.386 804.909 839.89 805.695 838.602C806.481 837.314 807.551 836.311 808.905 835.591C810.268 834.871 811.798 834.511 813.493 834.511C815.197 834.511 816.708 834.871 818.024 835.591C819.34 836.311 820.373 837.281 821.121 838.503C821.869 839.724 822.243 841.083 822.243 842.58C822.243 843.65 822.049 844.696 821.661 845.719C821.282 846.732 820.619 847.864 819.672 849.114C818.734 850.354 817.432 851.869 815.766 853.659L809.232 860.648V860.875H822.754V864H804.402Z" fill="white"/>
<circle cx="1063" cy="849" r="40" fill="#1FA5F4"/>
<path d="M1062.11 864.398C1060.23 864.398 1058.56 864.076 1057.09 863.432C1055.63 862.788 1054.47 861.893 1053.61 860.747C1052.76 859.592 1052.3 858.252 1052.22 856.727H1055.8C1055.88 857.665 1056.2 858.474 1056.77 859.156C1057.33 859.829 1058.08 860.349 1059 860.719C1059.91 861.088 1060.93 861.273 1062.05 861.273C1063.3 861.273 1064.41 861.055 1065.37 860.619C1066.34 860.184 1067.1 859.578 1067.65 858.801C1068.2 858.025 1068.47 857.125 1068.47 856.102C1068.47 855.032 1068.21 854.09 1067.67 853.276C1067.14 852.452 1066.37 851.808 1065.35 851.344C1064.32 850.88 1063.07 850.648 1061.6 850.648H1059.27V847.523H1061.6C1062.75 847.523 1063.76 847.314 1064.63 846.898C1065.52 846.481 1066.2 845.894 1066.69 845.136C1067.2 844.379 1067.45 843.489 1067.45 842.466C1067.45 841.481 1067.23 840.624 1066.79 839.895C1066.36 839.166 1065.74 838.598 1064.95 838.19C1064.16 837.783 1063.23 837.58 1062.16 837.58C1061.16 837.58 1060.21 837.764 1059.32 838.134C1058.44 838.493 1057.72 839.019 1057.16 839.71C1056.6 840.392 1056.3 841.216 1056.25 842.182H1052.85C1052.9 840.657 1053.36 839.322 1054.22 838.176C1055.08 837.021 1056.21 836.121 1057.6 835.477C1059.01 834.833 1060.54 834.511 1062.22 834.511C1064.02 834.511 1065.56 834.876 1066.85 835.605C1068.14 836.325 1069.13 837.277 1069.82 838.46C1070.51 839.644 1070.86 840.922 1070.86 842.295C1070.86 843.934 1070.43 845.33 1069.56 846.486C1068.71 847.641 1067.55 848.441 1066.08 848.886V849.114C1067.92 849.417 1069.36 850.198 1070.39 851.457C1071.42 852.707 1071.94 854.256 1071.94 856.102C1071.94 857.684 1071.51 859.104 1070.64 860.364C1069.79 861.614 1068.63 862.598 1067.15 863.318C1065.67 864.038 1063.99 864.398 1062.11 864.398Z" fill="white"/>
</svg>
