<svg width="1200" height="1000" viewBox="0 0 1200 1000" fill="none" xmlns="http://www.w3.org/2000/svg">
<path d="M154 849.584V215.584C154 215.584 163.25 124.584 275.5 124.584C387.75 124.584 396.5 215.584 396.5 215.584C396.5 215.584 396.5 699.584 396.5 774.584C396.5 849.584 461.5 846.584 502 822.585C542.5 798.585 618.5 680.585 618.5 680.585C618.5 680.585 648 789.084 681 822.585C714 856.085 824.5 845.585 824.5 774.584C824.5 703.584 825.9 343.085 824.5 269.585C823.1 196.085 704 215.584 704 215.584" stroke="white" stroke-opacity="0.5" stroke-width="100" stroke-linecap="round" stroke-linejoin="round"/>
<path d="M1044.5 849.585V283.584C1044.5 283.584 1044.5 112.782 955.5 124.585C866.5 136.387 704 215.584 704 215.584" stroke="white" stroke-width="20" stroke-linecap="round" stroke-linejoin="round" stroke-dasharray="40 40"/>
<circle cx="1041" cy="853" r="40" fill="#1FA5F4"/>
<path d="M1029.5 862.034V859.136L1042.28 838.909H1044.38V843.398H1042.96L1033.3 858.682V858.909H1050.52V862.034H1029.5ZM1043.19 868V861.153V859.804V838.909H1046.54V868H1043.19Z" fill="white"/>
<circle cx="693" cy="216" r="40" fill="#1FA5F4"/>
<path d="M692.107 231.398C690.232 231.398 688.56 231.076 687.092 230.432C685.634 229.788 684.474 228.893 683.612 227.747C682.76 226.592 682.296 225.252 682.22 223.727H685.8C685.875 224.665 686.197 225.474 686.766 226.156C687.334 226.829 688.077 227.349 688.996 227.719C689.914 228.088 690.932 228.273 692.05 228.273C693.3 228.273 694.408 228.055 695.374 227.619C696.339 227.184 697.097 226.578 697.646 225.801C698.196 225.025 698.47 224.125 698.47 223.102C698.47 222.032 698.205 221.09 697.675 220.276C697.144 219.452 696.368 218.808 695.345 218.344C694.322 217.88 693.072 217.648 691.595 217.648H689.266V214.523H691.595C692.75 214.523 693.764 214.314 694.635 213.898C695.516 213.481 696.202 212.894 696.695 212.136C697.196 211.379 697.447 210.489 697.447 209.466C697.447 208.481 697.23 207.624 696.794 206.895C696.358 206.166 695.743 205.598 694.947 205.19C694.161 204.783 693.233 204.58 692.163 204.58C691.16 204.58 690.213 204.764 689.322 205.134C688.442 205.493 687.722 206.019 687.163 206.71C686.605 207.392 686.302 208.216 686.254 209.182H682.845C682.902 207.657 683.361 206.322 684.223 205.176C685.085 204.021 686.212 203.121 687.604 202.477C689.005 201.833 690.544 201.511 692.22 201.511C694.019 201.511 695.563 201.876 696.851 202.605C698.139 203.325 699.128 204.277 699.82 205.46C700.511 206.644 700.857 207.922 700.857 209.295C700.857 210.934 700.426 212.33 699.564 213.486C698.712 214.641 697.552 215.441 696.084 215.886V216.114C697.921 216.417 699.356 217.198 700.388 218.457C701.42 219.707 701.936 221.256 701.936 223.102C701.936 224.684 701.505 226.104 700.643 227.364C699.791 228.614 698.626 229.598 697.149 230.318C695.672 231.038 693.991 231.398 692.107 231.398Z" fill="white"/>
</svg>
