<svg width="998" height="1977" viewBox="0 0 998 1977" fill="none" xmlns="http://www.w3.org/2000/svg">
<path d="M372.941 389.527C374.569 391.155 380.266 394.898 390.031 400.758L313.859 462.281C301.815 472.047 280.982 476.93 251.359 476.93C193.742 476.93 146.542 466.839 109.758 446.656C63.2083 421.266 39.9336 382.203 39.9336 329.469C39.9336 255.25 79.1589 188.193 157.609 128.297C207.089 90.5365 264.868 59.9375 330.949 36.5C398.332 12.737 462.297 0.855469 522.844 0.855469C602.271 0.855469 666.724 21.6888 716.203 63.3555C746.477 88.7461 761.613 117.717 761.613 150.27C761.613 201.051 726.457 257.04 656.145 318.238C637.915 334.189 606.014 356.65 560.441 385.621C547.421 394.085 519.263 411.826 475.969 438.844H452.043C466.366 427.125 491.594 409.71 527.727 386.598C560.93 365.439 585.669 347.698 601.945 333.375C650.773 289.755 675.188 249.391 675.188 212.281C675.188 183.961 661.027 157.919 632.707 134.156C582.251 91.8385 514.706 70.6797 430.07 70.6797C356.503 70.6797 287.167 85.9792 222.062 116.578C151.75 149.781 116.594 193.238 116.594 246.949C116.594 295.452 141.008 334.677 189.836 364.625C231.503 390.667 278.052 403.688 329.484 403.688C347.388 403.688 361.874 398.967 372.941 389.527Z" fill="white"/>
<path d="M182 1236C172.667 1245.33 161.333 1250 148 1250C134.667 1250 123.333 1245.33 114 1236C104.667 1226 100 1214.33 100 1201C100 1187 104.667 1175.33 114 1166C123.333 1156.67 134.667 1152 148 1152C161.333 1152 172.667 1156.67 182 1166C192 1175.33 197 1187 197 1201C197 1214.33 192 1226 182 1236ZM473.016 1236C463.682 1245.33 452.349 1250 439.016 1250C425.682 1250 414.349 1245.33 405.016 1236C395.682 1226 391.016 1214.33 391.016 1201C391.016 1187 395.682 1175.33 405.016 1166C414.349 1156.67 425.682 1152 439.016 1152C452.349 1152 463.682 1156.67 473.016 1166C483.016 1175.33 488.016 1187 488.016 1201C488.016 1214.33 483.016 1226 473.016 1236ZM764.031 1236C754.698 1245.33 743.365 1250 730.031 1250C716.698 1250 705.365 1245.33 696.031 1236C686.698 1226 682.031 1214.33 682.031 1201C682.031 1187 686.698 1175.33 696.031 1166C705.365 1156.67 716.698 1152 730.031 1152C743.365 1152 754.698 1156.67 764.031 1166C774.031 1175.33 779.031 1187 779.031 1201C779.031 1214.33 774.031 1226 764.031 1236Z" fill="white"/>
</svg>
