<svg width="1200" height="1000" viewBox="0 0 1200 1000" fill="none" xmlns="http://www.w3.org/2000/svg">
<path d="M91.0001 850V238C91.0001 238 91 125 196 125C301 125 302 240.889 302 240.889V759.5C302 759.5 302 843 395 843C488 843 487.5 759.5 487.5 759.5V238C487.5 238 488 125 594 125C700 125 700 238 700 238V759.5C700 759.5 700 843 799.5 843C899 843 899.5 759.5 899.5 759.5V238C899.5 238 899.5 125 1004.5 125C1109.5 125 1109.5 238 1109.5 238V843" stroke="white" stroke-width="100" stroke-linecap="round" stroke-linejoin="round"/>
</svg>
