<svg width="1200" height="1000" viewBox="0 0 1200 1000" fill="none" xmlns="http://www.w3.org/2000/svg">
<path d="M146 843V263.001C146 263.001 145.5 118 275.5 118C405.5 118 405.5 263.001 405.5 263.001C405.5 263.001 405.5 681.499 405.5 768C405.5 854.501 512.5 854.501 512.5 854.501H814C814 854.501 718 814.501 718 768C718 721.499 719.4 336.501 718 263.001C716.6 189.501 820 138.001 820 138.001C820 138.001 861.5 118 964.5 118C1067.5 118 1074.5 118 1074.5 118" stroke="white" stroke-width="100" stroke-linecap="round" stroke-linejoin="round"/>
<path d="M1074.5 118L896.49 334.75L718.48 551.501L1034 841.001" stroke="white" stroke-width="100" stroke-linecap="round" stroke-linejoin="round"/>
</svg>
