<svg width="1200" height="1000" viewBox="0 0 1200 1000" fill="none" xmlns="http://www.w3.org/2000/svg">
<path d="M263 808.908V231.531C263 231.531 263.001 137 354.749 137C446.498 137 446.963 231.531 446.963 231.531V808.908H566.053C566.053 808.908 592.177 808.908 650.853 768.593C682.883 746.586 702.288 715.304 702.288 715.304H640.195M937.224 808.908V200.947C937.224 200.947 937.224 137 857.985 137C778.747 137 775.966 200.947 775.966 200.947M775.966 200.947V276.015M775.966 200.947C775.966 200.947 775.966 137 717.58 137C659.657 137 659.657 200.947 659.657 200.947V276.015" stroke="white" stroke-width="20" stroke-linecap="round" stroke-linejoin="round" stroke-dasharray="40 40"/>
<circle cx="263" cy="823" r="40" fill="#1FA5F4"/>
<path d="M266.442 808.909V838H262.919V812.602H262.749L255.646 817.318V813.739L262.919 808.909H266.442Z" fill="white"/>
<circle cx="599" cy="712" r="40" fill="#1FA5F4"/>
<path d="M589.402 727V724.443L599.004 713.932C600.131 712.701 601.059 711.631 601.788 710.722C602.518 709.803 603.057 708.941 603.408 708.136C603.768 707.322 603.947 706.47 603.947 705.58C603.947 704.557 603.701 703.671 603.209 702.923C602.726 702.175 602.063 701.598 601.22 701.19C600.377 700.783 599.43 700.58 598.379 700.58C597.262 700.58 596.286 700.812 595.453 701.276C594.629 701.73 593.99 702.369 593.536 703.193C593.09 704.017 592.868 704.983 592.868 706.091H589.516C589.516 704.386 589.909 702.89 590.695 701.602C591.481 700.314 592.551 699.311 593.905 698.591C595.268 697.871 596.798 697.511 598.493 697.511C600.197 697.511 601.708 697.871 603.024 698.591C604.34 699.311 605.373 700.281 606.121 701.503C606.869 702.724 607.243 704.083 607.243 705.58C607.243 706.65 607.049 707.696 606.661 708.719C606.282 709.732 605.619 710.864 604.672 712.114C603.734 713.354 602.432 714.869 600.766 716.659L594.232 723.648V723.875H607.754V727H589.402Z" fill="white"/>
<circle cx="664" cy="297" r="40" fill="#1FA5F4"/>
<path d="M663.107 312.398C661.232 312.398 659.56 312.076 658.092 311.432C656.634 310.788 655.474 309.893 654.612 308.747C653.76 307.592 653.296 306.252 653.22 304.727H656.8C656.875 305.665 657.197 306.474 657.766 307.156C658.334 307.829 659.077 308.349 659.996 308.719C660.914 309.088 661.932 309.273 663.05 309.273C664.3 309.273 665.408 309.055 666.374 308.619C667.339 308.184 668.097 307.578 668.646 306.801C669.196 306.025 669.47 305.125 669.47 304.102C669.47 303.032 669.205 302.09 668.675 301.276C668.144 300.452 667.368 299.808 666.345 299.344C665.322 298.88 664.072 298.648 662.595 298.648H660.266V295.523H662.595C663.75 295.523 664.764 295.314 665.635 294.898C666.516 294.481 667.202 293.894 667.695 293.136C668.196 292.379 668.447 291.489 668.447 290.466C668.447 289.481 668.23 288.624 667.794 287.895C667.358 287.166 666.743 286.598 665.947 286.19C665.161 285.783 664.233 285.58 663.163 285.58C662.16 285.58 661.213 285.764 660.322 286.134C659.442 286.493 658.722 287.019 658.163 287.71C657.605 288.392 657.302 289.216 657.254 290.182H653.845C653.902 288.657 654.361 287.322 655.223 286.176C656.085 285.021 657.212 284.121 658.604 283.477C660.005 282.833 661.544 282.511 663.22 282.511C665.019 282.511 666.563 282.876 667.851 283.605C669.139 284.325 670.128 285.277 670.82 286.46C671.511 287.644 671.857 288.922 671.857 290.295C671.857 291.934 671.426 293.33 670.564 294.486C669.712 295.641 668.552 296.441 667.084 296.886V297.114C668.921 297.417 670.356 298.198 671.388 299.457C672.42 300.707 672.936 302.256 672.936 304.102C672.936 305.684 672.505 307.104 671.643 308.364C670.791 309.614 669.626 310.598 668.149 311.318C666.672 312.038 664.991 312.398 663.107 312.398Z" fill="white"/>
<circle cx="938" cy="823" r="40" fill="#1FA5F4"/>
<path d="M926.498 832.034V829.136L939.282 808.909H941.384V813.398H939.963L930.304 828.682V828.909H947.52V832.034H926.498ZM940.191 838V831.153V829.804V808.909H943.543V838H940.191Z" fill="white"/>
</svg>
