<svg width="1200" height="1000" viewBox="0 0 1200 1000" fill="none" xmlns="http://www.w3.org/2000/svg">
<path d="M158 850V284C158 284 167.25 125 279.5 125C391.75 125 400.5 284 400.5 284C400.5 284 400.5 686.5 400.5 779.5C400.5 872.5 479 844 536 817C612 739.5 722 611.5 722 611.5M1044 850V284C1044 284 1048.5 125 884.5 125C720.5 125 722 284 722 284V611.5M722 611.5V850C722 850 845 850 845 716C845 567 722 611.5 722 611.5Z" stroke="white" stroke-width="20" stroke-linecap="round" stroke-linejoin="round" stroke-dasharray="40 40"/>
<circle cx="158" cy="850" r="40" fill="#1FA5F4"/>
<path d="M161.442 835.909V865H157.919V839.602H157.749L150.646 844.318V840.739L157.919 835.909H161.442Z" fill="white"/>
<circle cx="1044" cy="850" r="40" fill="#1FA5F4"/>
<path d="M1034.4 865V862.443L1044 851.932C1045.13 850.701 1046.06 849.631 1046.79 848.722C1047.52 847.803 1048.06 846.941 1048.41 846.136C1048.77 845.322 1048.95 844.47 1048.95 843.58C1048.95 842.557 1048.7 841.671 1048.21 840.923C1047.73 840.175 1047.06 839.598 1046.22 839.19C1045.38 838.783 1044.43 838.58 1043.38 838.58C1042.26 838.58 1041.29 838.812 1040.45 839.276C1039.63 839.73 1038.99 840.369 1038.54 841.193C1038.09 842.017 1037.87 842.983 1037.87 844.091H1034.52C1034.52 842.386 1034.91 840.89 1035.69 839.602C1036.48 838.314 1037.55 837.311 1038.9 836.591C1040.27 835.871 1041.8 835.511 1043.49 835.511C1045.2 835.511 1046.71 835.871 1048.02 836.591C1049.34 837.311 1050.37 838.281 1051.12 839.503C1051.87 840.724 1052.24 842.083 1052.24 843.58C1052.24 844.65 1052.05 845.696 1051.66 846.719C1051.28 847.732 1050.62 848.864 1049.67 850.114C1048.73 851.354 1047.43 852.869 1045.77 854.659L1039.23 861.648V861.875H1052.75V865H1034.4Z" fill="white"/>
</svg>
