<svg width="1200" height="1000" viewBox="0 0 1200 1000" fill="none" xmlns="http://www.w3.org/2000/svg">
<path d="M243 808.908V231.531C243 231.531 243.001 137 334.749 137C426.498 137 426.963 231.531 426.963 231.531V808.908H546.053C546.053 808.908 572.177 808.908 630.853 768.593C662.883 746.586 682.288 715.304 682.288 715.304H620.195" stroke="white" stroke-opacity="0.5" stroke-width="100" stroke-linecap="round" stroke-linejoin="round"/>
<path d="M917.224 808.908V200.947C917.224 200.947 917.224 137 837.985 137C758.746 137 755.966 200.947 755.966 200.947M755.966 200.947V276.015M755.966 200.947C755.966 200.947 755.966 137 697.579 137C639.656 137 639.656 200.947 639.656 200.947V276.015" stroke="white" stroke-width="20" stroke-linecap="round" stroke-linejoin="round" stroke-dasharray="40 40"/>
<circle cx="644" cy="297" r="40" fill="#1FA5F4"/>
<path d="M643.107 312.398C641.232 312.398 639.56 312.076 638.092 311.432C636.634 310.788 635.474 309.893 634.612 308.747C633.76 307.592 633.296 306.252 633.22 304.727H636.8C636.875 305.665 637.197 306.474 637.766 307.156C638.334 307.829 639.077 308.349 639.996 308.719C640.914 309.088 641.932 309.273 643.05 309.273C644.3 309.273 645.408 309.055 646.374 308.619C647.339 308.184 648.097 307.578 648.646 306.801C649.196 306.025 649.47 305.125 649.47 304.102C649.47 303.032 649.205 302.09 648.675 301.276C648.144 300.452 647.368 299.808 646.345 299.344C645.322 298.88 644.072 298.648 642.595 298.648H640.266V295.523H642.595C643.75 295.523 644.764 295.314 645.635 294.898C646.516 294.481 647.202 293.894 647.695 293.136C648.196 292.379 648.447 291.489 648.447 290.466C648.447 289.481 648.23 288.624 647.794 287.895C647.358 287.166 646.743 286.598 645.947 286.19C645.161 285.783 644.233 285.58 643.163 285.58C642.16 285.58 641.213 285.764 640.322 286.134C639.442 286.493 638.722 287.019 638.163 287.71C637.605 288.392 637.302 289.216 637.254 290.182H633.845C633.902 288.657 634.361 287.322 635.223 286.176C636.085 285.021 637.212 284.121 638.604 283.477C640.005 282.833 641.544 282.511 643.22 282.511C645.019 282.511 646.563 282.876 647.851 283.605C649.139 284.325 650.128 285.277 650.82 286.46C651.511 287.644 651.857 288.922 651.857 290.295C651.857 291.934 651.426 293.33 650.564 294.486C649.712 295.641 648.552 296.441 647.084 296.886V297.114C648.921 297.417 650.356 298.198 651.388 299.457C652.42 300.707 652.936 302.256 652.936 304.102C652.936 305.684 652.505 307.104 651.643 308.364C650.791 309.614 649.626 310.598 648.149 311.318C646.672 312.038 644.991 312.398 643.107 312.398Z" fill="white"/>
<circle cx="918" cy="823" r="40" fill="#1FA5F4"/>
<path d="M906.498 832.034V829.136L919.282 808.909H921.384V813.398H919.963L910.304 828.682V828.909H927.52V832.034H906.498ZM920.191 838V831.153V829.804V808.909H923.543V838H920.191Z" fill="white"/>
</svg>
