<svg width="1200" height="1000" viewBox="0 0 1200 1000" fill="none" xmlns="http://www.w3.org/2000/svg">
<path d="M874.5 853V287C874.5 287 925 128 1041 128C1114.5 128 1114.5 287 1114.5 287V853" stroke="white" stroke-width="20" stroke-linecap="round" stroke-linejoin="round" stroke-dasharray="40 40"/>
<path d="M86 853V287C86 287 86 128 217.5 128C349 128 348 287 348 287V510M348 853V510M874.5 853V287C874.5 287 864 128 717 128C570 128 570 287 570 287V458M348 510L570 458M570 458V853C570 853 717 853 717 656C717 458 570 458 570 458Z" stroke="white" stroke-opacity="0.5" stroke-width="100" stroke-linecap="round" stroke-linejoin="round"/>
<circle cx="877" cy="853" r="40" fill="#1FA5F4"/>
<path d="M865.498 862.034V859.136L878.282 838.909H880.384V843.398H878.963L869.304 858.682V858.909H886.52V862.034H865.498ZM879.191 868V861.153V859.804V838.909H882.543V868H879.191Z" fill="white"/>
<circle cx="1115" cy="853" r="40" fill="#1FA5F4"/>
<path d="M1114.43 868.398C1112.77 868.398 1111.27 868.066 1109.93 867.403C1108.6 866.741 1107.53 865.831 1106.72 864.676C1105.92 863.521 1105.48 862.205 1105.4 860.727H1108.81C1108.94 862.044 1109.54 863.133 1110.6 863.994C1111.67 864.847 1112.95 865.273 1114.43 865.273C1115.63 865.273 1116.69 864.993 1117.62 864.435C1118.55 863.876 1119.29 863.109 1119.82 862.134C1120.36 861.149 1120.63 860.036 1120.63 858.795C1120.63 857.527 1120.35 856.395 1119.79 855.401C1119.24 854.397 1118.48 853.606 1117.52 853.028C1116.55 852.451 1115.45 852.157 1114.21 852.148C1113.32 852.138 1112.4 852.276 1111.47 852.56C1110.53 852.834 1109.76 853.189 1109.15 853.625L1105.85 853.227L1107.62 838.909H1122.73V842.034H1110.57L1109.55 850.614H1109.72C1110.31 850.14 1111.06 849.747 1111.96 849.435C1112.86 849.122 1113.8 848.966 1114.78 848.966C1116.56 848.966 1118.14 849.392 1119.53 850.244C1120.94 851.087 1122.03 852.242 1122.83 853.71C1123.63 855.178 1124.04 856.854 1124.04 858.739C1124.04 860.595 1123.62 862.252 1122.79 863.71C1121.96 865.159 1120.83 866.305 1119.38 867.148C1117.93 867.981 1116.28 868.398 1114.43 868.398Z" fill="white"/>
</svg>
