<svg width="1500" height="1499" viewBox="0 0 1500 1499" fill="none" xmlns="http://www.w3.org/2000/svg">
<path d="M1021 217.406C1021 251.911 1021.97 272.582 1023.93 279.418L965.332 430.297C961.426 415.648 959.473 399.861 959.473 382.934C959.473 350.056 966.309 315.551 979.98 279.418L980.957 277.953L1036.62 133.422C1051.6 94.6849 1076.01 62.9466 1109.86 38.207C1144.04 13.1419 1181.64 0.609375 1222.66 0.609375C1277.99 0.609375 1320.15 20.3034 1349.12 59.6914C1374.51 94.8477 1387.21 141.072 1387.21 198.363C1387.21 284.301 1347.01 384.724 1266.6 499.633C1257.49 512.654 1221.03 560.505 1157.23 643.188C1224.61 636.026 1273.11 639.444 1302.73 653.441C1349.93 675.577 1387.7 723.591 1416.02 797.484C1440.1 860.31 1452.15 921.996 1452.15 982.543C1452.15 1188.6 1381.51 1346.64 1240.23 1456.66C1208.98 1481.08 1187.83 1495.08 1176.76 1498.66C1312.83 1379.52 1380.86 1235.64 1380.86 1067.02C1380.86 1053.67 1380.53 1041.46 1379.88 1030.39C1377.28 985.798 1362.47 937.133 1335.45 884.398C1305.83 826.781 1272.95 789.346 1236.82 772.094C1217.29 762.654 1187.01 757.934 1146 757.934C1103.35 757.934 1058.43 762.328 1011.23 771.117L1088.38 653.441C1135.9 612.1 1183.27 557.413 1230.47 489.379C1293.95 397.908 1325.68 322.224 1325.68 262.328C1325.68 223.917 1312.99 191.202 1287.6 164.184C1262.53 136.84 1230.96 123.168 1192.87 123.168C1167.48 123.168 1133.79 132.934 1091.8 152.465C1044.6 174.275 1021 195.922 1021 217.406Z" fill="white"/>
<path d="M182 663C172.667 672.333 161.333 677 148 677C134.667 677 123.333 672.333 114 663C104.667 653 100 641.333 100 628C100 614 104.667 602.333 114 593C123.333 583.667 134.667 579 148 579C161.333 579 172.667 583.667 182 593C192 602.333 197 614 197 628C197 641.333 192 653 182 663ZM473.016 663C463.682 672.333 452.349 677 439.016 677C425.682 677 414.349 672.333 405.016 663C395.682 653 391.016 641.333 391.016 628C391.016 614 395.682 602.333 405.016 593C414.349 583.667 425.682 579 439.016 579C452.349 579 463.682 583.667 473.016 593C483.016 602.333 488.016 614 488.016 628C488.016 641.333 483.016 653 473.016 663ZM764.031 663C754.698 672.333 743.365 677 730.031 677C716.698 677 705.365 672.333 696.031 663C686.698 653 682.031 641.333 682.031 628C682.031 614 686.698 602.333 696.031 593C705.365 583.667 716.698 579 730.031 579C743.365 579 754.698 583.667 764.031 593C774.031 602.333 779.031 614 779.031 628C779.031 641.333 774.031 653 764.031 663Z" fill="white"/>
</svg>
