<svg width="1523" height="1036" viewBox="0 0 1523 1036" fill="none" xmlns="http://www.w3.org/2000/svg">
<path d="M1112.79 573.039V571.574C1129.71 563.762 1160.47 549.927 1205.07 530.07C1242.51 513.794 1274.41 505.656 1300.77 505.656C1322.26 505.656 1333 535.604 1333 595.5V957.316H1242.67V640.422C1242.67 594.849 1242.99 577.759 1243.64 589.152C1242.99 575.155 1239.25 564.901 1232.41 558.391C1179.03 570.109 1138.5 582.479 1110.83 595.5V957.316H1034.17V640.422C1034.17 604.615 1034.33 588.664 1034.66 592.57C1032.71 569.133 1025.55 557.414 1013.18 557.414C1003.08 557.414 981.926 562.785 949.699 573.527L945.305 574.992C913.078 585.734 894.361 593.547 889.152 598.43V957.316H806.633V641.398C806.633 584.758 804.842 556.438 801.262 556.438C799.634 556.763 798.332 557.577 797.355 558.879L743.645 610.637C743.97 594.361 758.456 572.551 787.102 545.207C815.747 517.863 838.208 504.191 854.484 504.191C877.596 504.191 889.803 529.582 891.105 580.363C897.29 572.225 927.238 557.74 980.949 536.906C1034.66 516.073 1067.86 505.656 1080.56 505.656C1100.09 505.656 1110.83 528.117 1112.79 573.039Z" fill="white"/>
<path d="M182 295C172.667 304.333 161.333 309 148 309C134.667 309 123.333 304.333 114 295C104.667 285 100 273.333 100 260C100 246 104.667 234.333 114 225C123.333 215.667 134.667 211 148 211C161.333 211 172.667 215.667 182 225C192 234.333 197 246 197 260C197 273.333 192 285 182 295ZM473.016 295C463.682 304.333 452.349 309 439.016 309C425.682 309 414.349 304.333 405.016 295C395.682 285 391.016 273.333 391.016 260C391.016 246 395.682 234.333 405.016 225C414.349 215.667 425.682 211 439.016 211C452.349 211 463.682 215.667 473.016 225C483.016 234.333 488.016 246 488.016 260C488.016 273.333 483.016 285 473.016 295ZM764.031 295C754.698 304.333 743.365 309 730.031 309C716.698 309 705.365 304.333 696.031 295C686.698 285 682.031 273.333 682.031 260C682.031 246 686.698 234.333 696.031 225C705.365 215.667 716.698 211 730.031 211C743.365 211 754.698 215.667 764.031 225C774.031 234.333 779.031 246 779.031 260C779.031 273.333 774.031 285 764.031 295Z" fill="white"/>
</svg>
