<svg width="1200" height="1000" viewBox="0 0 1200 1000" fill="none" xmlns="http://www.w3.org/2000/svg">
<path d="M263 835.908V258.531C263 258.531 263.001 164 354.749 164C446.498 164 446.963 258.531 446.963 258.531V835.908H566.053C566.053 835.908 592.177 835.908 650.853 795.593C682.883 773.586 702.288 742.304 702.288 742.304H640.195" stroke="white" stroke-width="100" stroke-linecap="round" stroke-linejoin="round"/>
<path d="M937.224 835.908V227.947C937.224 227.947 937.224 164 857.985 164C778.746 164 775.966 227.947 775.966 227.947M775.966 227.947V303.015M775.966 227.947C775.966 227.947 775.966 164 717.579 164C659.656 164 659.656 227.947 659.656 227.947V303.015" stroke="white" stroke-width="100" stroke-linecap="round" stroke-linejoin="round"/>
</svg>
