<svg width="1681" height="1441" viewBox="0 0 1681 1441" fill="none" xmlns="http://www.w3.org/2000/svg">
<path d="M390.137 81.6172C435.71 44.5078 462.402 23.8372 470.215 19.6055C493.978 6.58464 527.507 0.0742188 570.801 0.0742188C617.35 0.0742188 647.949 20.2565 662.598 60.6211C670.736 82.7565 674.805 122.145 674.805 178.785V1350.17L725.098 1324.29C726.074 1326.25 727.539 1328.85 729.492 1332.11L556.152 1440.02V178.785C556.152 114.007 530.599 81.6172 479.492 81.6172C454.753 81.6172 433.757 89.4297 416.504 105.055C398.275 121.005 389.16 141.188 389.16 165.602V770.094H316.895V165.602C316.895 109.612 293.945 81.6172 248.047 81.6172C216.146 81.6172 200.195 103.102 200.195 146.07V770.094H148.926V146.07C148.926 103.753 157.552 69.8984 174.805 44.5078C195.312 14.8854 225.749 0.0742188 266.113 0.0742188C297.038 0.0742188 323.405 6.09635 345.215 18.1406C371.257 32.4635 386.23 53.6224 390.137 81.6172Z" fill="white"/>
<path d="M988 661C978.667 670.333 967.333 675 954 675C940.667 675 929.333 670.333 920 661C910.667 651 906 639.333 906 626C906 612 910.667 600.333 920 591C929.333 581.667 940.667 577 954 577C967.333 577 978.667 581.667 988 591C998 600.333 1003 612 1003 626C1003 639.333 998 651 988 661ZM1279.02 661C1269.68 670.333 1258.35 675 1245.02 675C1231.68 675 1220.35 670.333 1211.02 661C1201.68 651 1197.02 639.333 1197.02 626C1197.02 612 1201.68 600.333 1211.02 591C1220.35 581.667 1231.68 577 1245.02 577C1258.35 577 1269.68 581.667 1279.02 591C1289.02 600.333 1294.02 612 1294.02 626C1294.02 639.333 1289.02 651 1279.02 661ZM1570.03 661C1560.7 670.333 1549.36 675 1536.03 675C1522.7 675 1511.36 670.333 1502.03 661C1492.7 651 1488.03 639.333 1488.03 626C1488.03 612 1492.7 600.333 1502.03 591C1511.36 581.667 1522.7 577 1536.03 577C1549.36 577 1560.7 581.667 1570.03 591C1580.03 600.333 1585.03 612 1585.03 626C1585.03 639.333 1580.03 651 1570.03 661Z" fill="white"/>
</svg>
