<svg width="1200" height="1000" viewBox="0 0 1200 1000" fill="none" xmlns="http://www.w3.org/2000/svg">
<path d="M170 780V157C170 157 170 55 282.999 55C395.998 55 396.499 157 396.499 157V780H497C497 780 542.386 784.11 608.5 745C715 682 702 583.583 664 567C580.5 530.562 542.435 607.491 538.5 620.5C507.5 723 559.185 851 568 870.5C601 943.5 635 952 669.5 940.5C704 929 759 853 759 853M816.5 124C816.5 124 852.5 55 941.5 55C1030.5 55 1030.5 124 1030.5 124V780M816.5 124V205M816.5 124C816.5 124 816.5 55 755 55C693.5 55 693.5 124 693.5 124V205" stroke="white" stroke-width="20" stroke-linecap="round" stroke-linejoin="round" stroke-dasharray="40 40"/>
<circle cx="170" cy="809" r="40" fill="#1FA5F4"/>
<path d="M173.442 794.909V824H169.919V798.602H169.749L162.646 803.318V799.739L169.919 794.909H173.442Z" fill="white"/>
<circle cx="773" cy="833" r="40" fill="#1FA5F4"/>
<path d="M763.402 848V845.443L773.004 834.932C774.131 833.701 775.059 832.631 775.788 831.722C776.518 830.803 777.057 829.941 777.408 829.136C777.768 828.322 777.947 827.47 777.947 826.58C777.947 825.557 777.701 824.671 777.209 823.923C776.726 823.175 776.063 822.598 775.22 822.19C774.377 821.783 773.43 821.58 772.379 821.58C771.262 821.58 770.286 821.812 769.453 822.276C768.629 822.73 767.99 823.369 767.536 824.193C767.09 825.017 766.868 825.983 766.868 827.091H763.516C763.516 825.386 763.909 823.89 764.695 822.602C765.481 821.314 766.551 820.311 767.905 819.591C769.268 818.871 770.798 818.511 772.493 818.511C774.197 818.511 775.708 818.871 777.024 819.591C778.34 820.311 779.373 821.281 780.121 822.503C780.869 823.724 781.243 825.083 781.243 826.58C781.243 827.65 781.049 828.696 780.661 829.719C780.282 830.732 779.619 831.864 778.672 833.114C777.734 834.354 776.432 835.869 774.766 837.659L768.232 844.648V844.875H781.754V848H763.402Z" fill="white"/>
<circle cx="693" cy="217" r="40" fill="#1FA5F4"/>
<path d="M692.107 232.398C690.232 232.398 688.56 232.076 687.092 231.432C685.634 230.788 684.474 229.893 683.612 228.747C682.76 227.592 682.296 226.252 682.22 224.727H685.8C685.875 225.665 686.197 226.474 686.766 227.156C687.334 227.829 688.077 228.349 688.996 228.719C689.914 229.088 690.932 229.273 692.05 229.273C693.3 229.273 694.408 229.055 695.374 228.619C696.339 228.184 697.097 227.578 697.646 226.801C698.196 226.025 698.47 225.125 698.47 224.102C698.47 223.032 698.205 222.09 697.675 221.276C697.144 220.452 696.368 219.808 695.345 219.344C694.322 218.88 693.072 218.648 691.595 218.648H689.266V215.523H691.595C692.75 215.523 693.764 215.314 694.635 214.898C695.516 214.481 696.202 213.894 696.695 213.136C697.196 212.379 697.447 211.489 697.447 210.466C697.447 209.481 697.23 208.624 696.794 207.895C696.358 207.166 695.743 206.598 694.947 206.19C694.161 205.783 693.233 205.58 692.163 205.58C691.16 205.58 690.213 205.764 689.322 206.134C688.442 206.493 687.722 207.019 687.163 207.71C686.605 208.392 686.302 209.216 686.254 210.182H682.845C682.902 208.657 683.361 207.322 684.223 206.176C685.085 205.021 686.212 204.121 687.604 203.477C689.005 202.833 690.544 202.511 692.22 202.511C694.019 202.511 695.563 202.876 696.851 203.605C698.139 204.325 699.128 205.277 699.82 206.46C700.511 207.644 700.857 208.922 700.857 210.295C700.857 211.934 700.426 213.33 699.564 214.486C698.712 215.641 697.552 216.441 696.084 216.886V217.114C697.921 217.417 699.356 218.198 700.388 219.457C701.42 220.707 701.936 222.256 701.936 224.102C701.936 225.684 701.505 227.104 700.643 228.364C699.791 229.614 698.626 230.598 697.149 231.318C695.672 232.038 693.991 232.398 692.107 232.398Z" fill="white"/>
<circle cx="1031" cy="809" r="40" fill="#1FA5F4"/>
<path d="M1019.5 818.034V815.136L1032.28 794.909H1034.38V799.398H1032.96L1023.3 814.682V814.909H1040.52V818.034H1019.5ZM1033.19 824V817.153V815.804V794.909H1036.54V824H1033.19Z" fill="white"/>
</svg>
