<svg width="1200" height="1000" viewBox="0 0 1200 1000" fill="none" xmlns="http://www.w3.org/2000/svg">
<path d="M40 835.908V258.531C40 258.531 40.0007 164 131.749 164C223.498 164 223.963 258.531 223.963 258.531V835.908H343.053C343.053 835.908 369.177 835.908 427.853 795.593C459.883 773.586 479.288 742.304 479.288 742.304H417.195M714.224 227.947C714.224 227.947 839.801 164 887.067 164C934.332 164 937.575 227.947 937.575 227.947M714.224 227.947V835.908M714.224 227.947C714.224 227.947 714.224 164 634.985 164C555.747 164 552.966 227.947 552.966 227.947M937.575 227.947V835.908M937.575 227.947C937.575 227.947 1023.77 164 1091.88 164C1160 164 1160 227.947 1160 227.947V835.908M552.966 227.947V303.015M552.966 227.947C552.966 227.947 552.967 164 494.58 164C436.657 164 436.657 227.947 436.657 227.947V303.015" stroke="white" stroke-width="20" stroke-linecap="round" stroke-linejoin="round" stroke-dasharray="40 40"/>
<circle cx="40" cy="850" r="40" fill="#1FA5F4"/>
<path d="M43.4418 835.909V865H39.919V839.602H39.7486L32.6463 844.318V840.739L39.919 835.909H43.4418Z" fill="white"/>
<circle cx="376" cy="739" r="40" fill="#1FA5F4"/>
<path d="M366.402 754V751.443L376.004 740.932C377.131 739.701 378.059 738.631 378.788 737.722C379.518 736.803 380.057 735.941 380.408 735.136C380.768 734.322 380.947 733.47 380.947 732.58C380.947 731.557 380.701 730.671 380.209 729.923C379.726 729.175 379.063 728.598 378.22 728.19C377.377 727.783 376.43 727.58 375.379 727.58C374.262 727.58 373.286 727.812 372.453 728.276C371.629 728.73 370.99 729.369 370.536 730.193C370.09 731.017 369.868 731.983 369.868 733.091H366.516C366.516 731.386 366.909 729.89 367.695 728.602C368.481 727.314 369.551 726.311 370.905 725.591C372.268 724.871 373.798 724.511 375.493 724.511C377.197 724.511 378.708 724.871 380.024 725.591C381.34 726.311 382.373 727.281 383.121 728.503C383.869 729.724 384.243 731.083 384.243 732.58C384.243 733.65 384.049 734.696 383.661 735.719C383.282 736.732 382.619 737.864 381.672 739.114C380.734 740.354 379.432 741.869 377.766 743.659L371.232 750.648V750.875H384.754V754H366.402Z" fill="white"/>
<circle cx="441" cy="324" r="40" fill="#1FA5F4"/>
<path d="M440.107 339.398C438.232 339.398 436.56 339.076 435.092 338.432C433.634 337.788 432.474 336.893 431.612 335.747C430.76 334.592 430.296 333.252 430.22 331.727H433.8C433.875 332.665 434.197 333.474 434.766 334.156C435.334 334.829 436.077 335.349 436.996 335.719C437.914 336.088 438.932 336.273 440.05 336.273C441.3 336.273 442.408 336.055 443.374 335.619C444.339 335.184 445.097 334.578 445.646 333.801C446.196 333.025 446.47 332.125 446.47 331.102C446.47 330.032 446.205 329.09 445.675 328.276C445.144 327.452 444.368 326.808 443.345 326.344C442.322 325.88 441.072 325.648 439.595 325.648H437.266V322.523H439.595C440.75 322.523 441.764 322.314 442.635 321.898C443.516 321.481 444.202 320.894 444.695 320.136C445.196 319.379 445.447 318.489 445.447 317.466C445.447 316.481 445.23 315.624 444.794 314.895C444.358 314.166 443.743 313.598 442.947 313.19C442.161 312.783 441.233 312.58 440.163 312.58C439.16 312.58 438.213 312.764 437.322 313.134C436.442 313.493 435.722 314.019 435.163 314.71C434.605 315.392 434.302 316.216 434.254 317.182H430.845C430.902 315.657 431.361 314.322 432.223 313.176C433.085 312.021 434.212 311.121 435.604 310.477C437.005 309.833 438.544 309.511 440.22 309.511C442.019 309.511 443.563 309.876 444.851 310.605C446.139 311.325 447.128 312.277 447.82 313.46C448.511 314.644 448.857 315.922 448.857 317.295C448.857 318.934 448.426 320.33 447.564 321.486C446.712 322.641 445.552 323.441 444.084 323.886V324.114C445.921 324.417 447.356 325.198 448.388 326.457C449.42 327.707 449.936 329.256 449.936 331.102C449.936 332.684 449.505 334.104 448.643 335.364C447.791 336.614 446.626 337.598 445.149 338.318C443.672 339.038 441.991 339.398 440.107 339.398Z" fill="white"/>
<circle cx="715" cy="850" r="40" fill="#1FA5F4"/>
<path d="M703.498 859.034V856.136L716.282 835.909H718.384V840.398H716.963L707.304 855.682V855.909H724.52V859.034H703.498ZM717.191 865V858.153V856.804V835.909H720.543V865H717.191Z" fill="white"/>
<circle cx="937" cy="850" r="40" fill="#1FA5F4"/>
<path d="M936.434 865.398C934.768 865.398 933.267 865.066 931.931 864.403C930.596 863.741 929.526 862.831 928.721 861.676C927.916 860.521 927.476 859.205 927.4 857.727H930.809C930.942 859.044 931.538 860.133 932.599 860.994C933.669 861.847 934.948 862.273 936.434 862.273C937.627 862.273 938.688 861.993 939.616 861.435C940.554 860.876 941.288 860.109 941.818 859.134C942.358 858.149 942.627 857.036 942.627 855.795C942.627 854.527 942.348 853.395 941.789 852.401C941.24 851.397 940.483 850.606 939.517 850.028C938.551 849.451 937.448 849.157 936.207 849.148C935.317 849.138 934.403 849.276 933.466 849.56C932.528 849.834 931.756 850.189 931.15 850.625L927.855 850.227L929.616 835.909H944.73V839.034H932.571L931.548 847.614H931.718C932.315 847.14 933.063 846.747 933.963 846.435C934.862 846.122 935.8 845.966 936.775 845.966C938.556 845.966 940.142 846.392 941.534 847.244C942.935 848.087 944.034 849.242 944.829 850.71C945.634 852.178 946.037 853.854 946.037 855.739C946.037 857.595 945.62 859.252 944.787 860.71C943.963 862.159 942.826 863.305 941.377 864.148C939.929 864.981 938.281 865.398 936.434 865.398Z" fill="white"/>
<circle cx="1160" cy="850" r="40" fill="#1FA5F4"/>
<path d="M1159.69 865.398C1158.5 865.379 1157.3 865.152 1156.11 864.716C1154.92 864.28 1153.83 863.546 1152.84 862.514C1151.86 861.473 1151.07 860.066 1150.47 858.295C1149.87 856.515 1149.58 854.28 1149.58 851.591C1149.58 849.015 1149.82 846.733 1150.3 844.744C1150.78 842.746 1151.48 841.065 1152.4 839.702C1153.32 838.329 1154.43 837.287 1155.73 836.577C1157.03 835.866 1158.51 835.511 1160.14 835.511C1161.77 835.511 1163.22 835.838 1164.49 836.491C1165.77 837.135 1166.81 838.035 1167.62 839.19C1168.42 840.346 1168.94 841.676 1169.18 843.182H1165.71C1165.39 841.875 1164.77 840.791 1163.84 839.929C1162.91 839.067 1161.68 838.636 1160.14 838.636C1157.89 838.636 1156.12 839.616 1154.82 841.577C1153.53 843.537 1152.88 846.288 1152.87 849.83H1153.1C1153.63 849.025 1154.26 848.338 1154.99 847.77C1155.73 847.192 1156.54 846.747 1157.43 846.435C1158.32 846.122 1159.26 845.966 1160.26 845.966C1161.92 845.966 1163.45 846.383 1164.83 847.216C1166.21 848.04 1167.32 849.181 1168.16 850.639C1168.99 852.088 1169.41 853.75 1169.41 855.625C1169.41 857.424 1169 859.072 1168.2 860.568C1167.39 862.055 1166.26 863.239 1164.8 864.119C1163.35 864.991 1161.65 865.417 1159.69 865.398ZM1159.69 862.273C1160.88 862.273 1161.95 861.974 1162.9 861.378C1163.86 860.781 1164.61 859.981 1165.16 858.977C1165.72 857.973 1166 856.856 1166 855.625C1166 854.422 1165.73 853.329 1165.19 852.344C1164.66 851.349 1163.92 850.559 1162.99 849.972C1162.06 849.384 1161 849.091 1159.8 849.091C1158.9 849.091 1158.07 849.271 1157.29 849.631C1156.51 849.981 1155.83 850.464 1155.24 851.08C1154.67 851.695 1154.21 852.401 1153.88 853.196C1153.55 853.982 1153.38 854.811 1153.38 855.682C1153.38 856.837 1153.65 857.917 1154.19 858.92C1154.74 859.924 1155.49 860.734 1156.44 861.349C1157.39 861.965 1158.48 862.273 1159.69 862.273Z" fill="white"/>
</svg>
