<svg width="1523" height="1036" viewBox="0 0 1523 1036" fill="none" xmlns="http://www.w3.org/2000/svg">
<path d="M969.719 764.934C961.255 754.842 951.652 749.797 940.91 749.797C924.634 749.797 909.172 759.4 894.523 778.605C887.362 788.046 883.781 801.88 883.781 820.109C883.781 833.781 888.827 846.477 898.918 858.195C908.684 870.24 920.402 876.262 934.074 876.262C947.095 876.262 958.326 868.775 967.766 853.801C975.904 840.454 979.973 826.783 979.973 812.785C979.973 789.022 976.555 773.072 969.719 764.934ZM778.801 614.543C781.405 616.171 782.707 618.612 782.707 621.867C782.707 623.82 770.337 643.84 745.598 681.926C720.533 720.012 708 748.82 708 768.352C708 841.594 741.529 878.215 808.586 878.215C823.56 878.215 839.022 877.238 854.973 875.285C839.673 853.475 832.023 827.271 832.023 796.672C832.023 770.305 839.185 748.332 853.508 730.754C874.992 704.387 902.336 691.203 935.539 691.203C964.836 691.203 987.948 700.318 1004.88 718.547C1016.59 731.242 1022.45 746.379 1022.45 763.957C1022.45 805.624 1002.43 849.895 962.395 896.77C970.207 903.28 988.599 906.535 1017.57 906.535C1046.54 906.535 1076.16 897.583 1106.44 879.68C1140.94 859.172 1158.2 835.572 1158.2 808.879C1158.2 766.236 1137.52 718.872 1096.18 666.789C1078.28 644.003 1067.21 627.076 1062.98 616.008C1058.42 605.266 1056.14 586.711 1056.14 560.344L1129.88 485.637C1129.88 522.421 1138.34 553.508 1155.27 578.898C1169.26 595.5 1190.26 620.565 1218.25 654.094C1230.3 668.417 1236.32 686.971 1236.32 709.758C1236.32 737.102 1228.18 767.863 1211.91 802.043C1198.23 830.689 1182.77 855.103 1165.52 875.285C1120.6 927.368 1069.17 953.41 1011.22 953.41C984.204 953.41 963.046 950.969 947.746 946.086C936.027 942.18 917.798 932.902 893.059 918.254C844.882 935.181 804.354 943.645 771.477 943.645C740.878 943.645 714.673 935.669 692.863 919.719C668.775 901.815 656.73 878.215 656.73 848.918C656.73 806.926 670.077 764.608 696.77 721.965C701.001 715.129 728.345 679.322 778.801 614.543Z" fill="white"/>
<path d="M182 295C172.667 304.333 161.333 309 148 309C134.667 309 123.333 304.333 114 295C104.667 285 100 273.333 100 260C100 246 104.667 234.333 114 225C123.333 215.667 134.667 211 148 211C161.333 211 172.667 215.667 182 225C192 234.333 197 246 197 260C197 273.333 192 285 182 295ZM473.016 295C463.682 304.333 452.349 309 439.016 309C425.682 309 414.349 304.333 405.016 295C395.682 285 391.016 273.333 391.016 260C391.016 246 395.682 234.333 405.016 225C414.349 215.667 425.682 211 439.016 211C452.349 211 463.682 215.667 473.016 225C483.016 234.333 488.016 246 488.016 260C488.016 273.333 483.016 285 473.016 295ZM764.031 295C754.698 304.333 743.365 309 730.031 309C716.698 309 705.365 304.333 696.031 295C686.698 285 682.031 273.333 682.031 260C682.031 246 686.698 234.333 696.031 225C705.365 215.667 716.698 211 730.031 211C743.365 211 754.698 215.667 764.031 225C774.031 234.333 779.031 246 779.031 260C779.031 273.333 774.031 285 764.031 295Z" fill="white"/>
</svg>
