<svg width="998" height="1219" viewBox="0 0 998 1219" fill="none" xmlns="http://www.w3.org/2000/svg">
<path d="M374.406 1163.37C472.714 1165.98 553.28 1136.19 616.105 1074.02C661.353 1029.42 694.719 971.965 716.203 901.652H808.977C792.375 991.822 738.664 1066.85 647.844 1126.75C565.161 1181.11 475.318 1210.08 378.312 1213.66C284.562 1216.92 203.671 1186.32 135.637 1121.87C67.6029 1057.74 33.5859 978.801 33.5859 885.051C33.5859 855.103 37.4922 825.806 45.3047 797.16C98.6901 601.522 214.087 503.703 391.496 503.703C410.376 503.703 438.859 505.493 476.945 509.074C515.031 512.98 543.677 514.934 562.883 514.934C611.06 514.934 644.1 507.609 662.004 492.961C683.488 475.383 694.23 446.086 694.23 405.07H808C808 475.708 790.585 524.699 755.754 552.043C735.246 568.319 706.763 576.457 670.305 576.457C641.659 576.457 599.016 571.249 542.375 560.832C485.409 550.741 442.44 545.695 413.469 545.695C279.029 545.695 190.487 630.493 147.844 800.09C141.659 824.829 138.566 850.22 138.566 876.262C138.566 949.504 159.725 1014.28 202.043 1070.6C247.29 1130.82 304.745 1161.74 374.406 1163.37Z" fill="white"/>
<path d="M182 295C172.667 304.333 161.333 309 148 309C134.667 309 123.333 304.333 114 295C104.667 285 100 273.333 100 260C100 246 104.667 234.333 114 225C123.333 215.667 134.667 211 148 211C161.333 211 172.667 215.667 182 225C192 234.333 197 246 197 260C197 273.333 192 285 182 295ZM473.016 295C463.682 304.333 452.349 309 439.016 309C425.682 309 414.349 304.333 405.016 295C395.682 285 391.016 273.333 391.016 260C391.016 246 395.682 234.333 405.016 225C414.349 215.667 425.682 211 439.016 211C452.349 211 463.682 215.667 473.016 225C483.016 234.333 488.016 246 488.016 260C488.016 273.333 483.016 285 473.016 295ZM764.031 295C754.698 304.333 743.365 309 730.031 309C716.698 309 705.365 304.333 696.031 295C686.698 285 682.031 273.333 682.031 260C682.031 246 686.698 234.333 696.031 225C705.365 215.667 716.698 211 730.031 211C743.365 211 754.698 215.667 764.031 225C774.031 234.333 779.031 246 779.031 260C779.031 273.333 774.031 285 764.031 295Z" fill="white"/>
</svg>
