<svg width="1523" height="1036" viewBox="0 0 1523 1036" fill="none" xmlns="http://www.w3.org/2000/svg">
<path d="M1048.33 658.488L1065.42 795.207C1072.91 855.754 1079.42 886.027 1084.95 886.027C1082.67 886.678 1087.72 887.004 1100.09 887.004C1119.62 887.004 1129.39 851.848 1129.39 781.535C1129.39 756.145 1122.06 731.079 1107.41 706.34C1091.46 679.322 1071.77 663.371 1048.33 658.488ZM839.836 595.5C837.232 588.99 832.186 585.734 824.699 585.734C806.145 585.734 787.427 599.406 768.547 626.75C746.086 658.977 734.855 698.365 734.855 744.914C734.855 773.885 739.576 800.415 749.016 824.504C761.711 857.056 780.591 873.332 805.656 873.332C845.695 873.332 872.388 836.548 885.734 762.98C892.245 740.52 900.546 708.293 910.637 666.301C894.035 671.835 869.621 678.508 837.395 686.32L839.836 666.301L913.566 644.816C923.332 606.405 934.725 570.923 947.746 538.371C950.676 530.559 956.21 516.561 964.348 496.379C973.788 474.569 984.855 463.664 997.551 463.664C1008.94 463.664 1016.59 468.221 1020.5 477.336L1032.22 518.84C1034.5 538.046 1037.92 568.645 1042.47 610.637L1044.91 610.148C1061.84 606.242 1092.6 599.243 1137.2 589.152C1173.98 581.014 1204.91 576.945 1229.97 576.945C1273.27 576.945 1302.89 594.523 1318.84 629.68C1327.95 649.862 1332.51 673.299 1332.51 699.992V951.457H1244.13V726.848C1244.13 670.533 1215.65 642.375 1158.68 642.375C1147.62 642.375 1134.6 643.352 1119.62 645.305C1128.41 662.232 1140.29 691.366 1155.27 732.707C1159.82 750.285 1162.1 769.003 1162.1 788.859C1162.1 826.294 1154.61 859.823 1139.64 889.445C1121.09 926.229 1094.88 944.621 1061.03 944.621C1039.87 944.621 1016.92 936.32 992.18 919.719C981.112 912.557 975.578 871.379 975.578 796.184C975.578 768.189 974.764 724.895 973.137 666.301C970.858 662.069 964.673 659.953 954.582 659.953C950.676 659.953 946.118 660.279 940.91 660.93C934.725 680.461 929.029 710.734 923.82 751.75C918.286 793.091 912.264 823.69 905.754 843.547C896.314 873.169 881.014 897.909 859.855 917.766C836.418 940.227 810.214 951.457 781.242 951.457C745.109 951.457 715.975 932.902 693.84 895.793C679.842 872.355 672.844 843.547 672.844 809.367C672.844 749.146 692.863 685.995 732.902 619.914C777.824 545.695 828.443 508.586 884.758 508.586C897.779 508.586 906.893 513.632 912.102 523.723L839.836 595.5ZM945.793 636.027L972.16 626.75L967.766 559.855L945.793 636.027Z" fill="white"/>
<path d="M182 295C172.667 304.333 161.333 309 148 309C134.667 309 123.333 304.333 114 295C104.667 285 100 273.333 100 260C100 246 104.667 234.333 114 225C123.333 215.667 134.667 211 148 211C161.333 211 172.667 215.667 182 225C192 234.333 197 246 197 260C197 273.333 192 285 182 295ZM473.016 295C463.682 304.333 452.349 309 439.016 309C425.682 309 414.349 304.333 405.016 295C395.682 285 391.016 273.333 391.016 260C391.016 246 395.682 234.333 405.016 225C414.349 215.667 425.682 211 439.016 211C452.349 211 463.682 215.667 473.016 225C483.016 234.333 488.016 246 488.016 260C488.016 273.333 483.016 285 473.016 295ZM764.031 295C754.698 304.333 743.365 309 730.031 309C716.698 309 705.365 304.333 696.031 295C686.698 285 682.031 273.333 682.031 260C682.031 246 686.698 234.333 696.031 225C705.365 215.667 716.698 211 730.031 211C743.365 211 754.698 215.667 764.031 225C774.031 234.333 779.031 246 779.031 260C779.031 273.333 774.031 285 764.031 295Z" fill="white"/>
</svg>
