<svg width="998" height="1050" viewBox="0 0 998 1050" fill="none" xmlns="http://www.w3.org/2000/svg">
<path d="M808 404.582V828.898C808 835.734 807.674 845.663 807.023 858.684C806.372 872.03 806.047 882.121 806.047 888.957C806.047 950.155 832.251 980.428 884.66 979.777C913.306 979.452 932.186 961.385 941.301 925.578C946.184 906.372 948.625 874.146 948.625 828.898V557.414C948.625 527.141 944.719 492.635 936.906 453.898C927.792 408.977 916.398 376.913 902.727 357.707C932.023 385.051 955.461 422.974 973.039 471.477C987.362 510.865 994.523 544.068 994.523 571.086V904.582C994.523 952.434 980.038 988.892 951.066 1013.96C923.723 1037.72 885.799 1049.6 837.297 1049.6C786.841 1049.6 748.267 1034.63 721.574 1004.68C696.509 976.034 683.977 936.158 683.977 885.051V404.582H808Z" fill="white"/>
<path d="M182 295C172.667 304.333 161.333 309 148 309C134.667 309 123.333 304.333 114 295C104.667 285 100 273.333 100 260C100 246 104.667 234.333 114 225C123.333 215.667 134.667 211 148 211C161.333 211 172.667 215.667 182 225C192 234.333 197 246 197 260C197 273.333 192 285 182 295ZM473.016 295C463.682 304.333 452.349 309 439.016 309C425.682 309 414.349 304.333 405.016 295C395.682 285 391.016 273.333 391.016 260C391.016 246 395.682 234.333 405.016 225C414.349 215.667 425.682 211 439.016 211C452.349 211 463.682 215.667 473.016 225C483.016 234.333 488.016 246 488.016 260C488.016 273.333 483.016 285 473.016 295ZM764.031 295C754.698 304.333 743.365 309 730.031 309C716.698 309 705.365 304.333 696.031 295C686.698 285 682.031 273.333 682.031 260C682.031 246 686.698 234.333 696.031 225C705.365 215.667 716.698 211 730.031 211C743.365 211 754.698 215.667 764.031 225C774.031 234.333 779.031 246 779.031 260C779.031 273.333 774.031 285 764.031 295Z" fill="white"/>
</svg>
