<svg width="1200" height="1000" viewBox="0 0 1200 1000" fill="none" xmlns="http://www.w3.org/2000/svg">
<path d="M874.5 853V287C874.5 287 925 128 1041 128C1114.5 128 1114.5 287 1114.5 287V853" stroke="white" stroke-width="100" stroke-linecap="round" stroke-linejoin="round"/>
<path d="M86 853V287C86 287 86 128 217.5 128C349 128 348 287 348 287V510M348 853V510M874.5 853V287C874.5 287 864 128 717 128C570 128 570 287 570 287V458M348 510L570 458M570 458V853C570 853 717 853 717 656C717 458 570 458 570 458Z" stroke="white" stroke-width="100" stroke-linecap="round" stroke-linejoin="round"/>
</svg>
