<svg width="1200" height="1000" viewBox="0 0 1200 1000" fill="none" xmlns="http://www.w3.org/2000/svg">
<path d="M170 780V157C170 157 170 55 282.999 55C395.998 55 396.499 157 396.499 157V780H497C497 780 542.386 784.11 608.5 745C715 682 702 583.583 664 567C580.5 530.562 542.435 607.491 538.5 620.5C507.5 723 559.185 851 568 870.5C601 943.5 635 952 669.5 940.5C704 929 759 853 759 853" stroke="white" stroke-width="100" stroke-linecap="round" stroke-linejoin="round"/>
<path d="M816.5 124C816.5 124 852.5 55 941.5 55C1030.5 55 1030.5 124 1030.5 124V780M816.5 124V205M816.5 124C816.5 124 816.5 55 755 55C693.5 55 693.5 124 693.5 124V205" stroke="white" stroke-width="100" stroke-linecap="round" stroke-linejoin="round"/>
</svg>
