<svg width="1200" height="1000" viewBox="0 0 1200 1000" fill="none" xmlns="http://www.w3.org/2000/svg">
<path d="M112 850V567V284C112 284 121.25 125 233.5 125C345.75 125 354.5 284 354.5 284C354.5 284 354.5 680.5 354.5 779.5C354.5 878.5 708.5 850 708.5 850C708.5 850 708.5 664 708.5 563C708.5 462 570.5 462 570.5 462V237.5C570.5 237.5 570.5 125 715.5 125C860.5 125 860 237.5 860 237.5V850" stroke="white" stroke-width="100" stroke-linecap="round" stroke-linejoin="round"/>
<path d="M860 850V237.5C860 237.5 860 125 973 125C1086 125 1086 237.5 1086 237.5V850" stroke="white" stroke-width="100" stroke-linecap="round" stroke-linejoin="round"/>
</svg>
