<svg width="1193" height="1423" viewBox="0 0 1193 1423" fill="none" xmlns="http://www.w3.org/2000/svg">
<path d="M684.465 907.742C609.921 925.32 559.465 943.875 533.098 963.406C492.408 993.354 472.062 1041.04 472.062 1106.47C472.062 1167.35 491.594 1221.06 530.656 1267.61C567.44 1311.55 606.828 1333.52 648.82 1333.52C673.234 1333.52 685.441 1314.64 685.441 1276.88C685.441 1270.05 685.116 1262.89 684.465 1255.4V907.742ZM808.488 768.582V833.035C844.296 824.572 867.733 816.759 878.801 809.598C895.728 798.53 904.191 781.115 904.191 757.352V128.934C904.191 92.4753 919.491 61.7135 950.09 36.6484C978.736 12.5599 1011.61 0.515625 1048.72 0.515625C1089.09 0.515625 1122.62 11.5833 1149.31 33.7188C1178.28 57.4818 1192.77 89.0573 1192.77 128.445V773.465H1068.74V151.883C1068.74 128.771 1064.84 109.077 1057.02 92.8008C1046.61 71.3164 1031.14 60.5742 1010.64 60.5742C963.111 60.5742 939.348 87.918 939.348 142.605V757.352C939.348 794.461 926.815 821.479 901.75 838.406C870.5 852.729 839.413 867.215 808.488 881.863V1245.14C808.488 1311.88 803.443 1355.33 793.352 1375.52C777.401 1407.09 741.757 1422.88 686.418 1422.88C597.551 1422.88 531.633 1386.91 488.664 1314.97C453.833 1256.38 436.418 1179.39 436.418 1084.01C436.418 1018.58 463.273 966.499 516.984 927.762C549.536 904.324 605.852 879.259 685.93 852.566V768.582H808.488Z" fill="white"/>
<path d="M182 659C172.667 668.333 161.333 673 148 673C134.667 673 123.333 668.333 114 659C104.667 649 100 637.333 100 624C100 610 104.667 598.333 114 589C123.333 579.667 134.667 575 148 575C161.333 575 172.667 579.667 182 589C192 598.333 197 610 197 624C197 637.333 192 649 182 659ZM473.016 659C463.682 668.333 452.349 673 439.016 673C425.682 673 414.349 668.333 405.016 659C395.682 649 391.016 637.333 391.016 624C391.016 610 395.682 598.333 405.016 589C414.349 579.667 425.682 575 439.016 575C452.349 575 463.682 579.667 473.016 589C483.016 598.333 488.016 610 488.016 624C488.016 637.333 483.016 649 473.016 659ZM764.031 659C754.698 668.333 743.365 673 730.031 673C716.698 673 705.365 668.333 696.031 659C686.698 649 682.031 637.333 682.031 624C682.031 610 686.698 598.333 696.031 589C705.365 579.667 716.698 575 730.031 575C743.365 575 754.698 579.667 764.031 589C774.031 598.333 779.031 610 779.031 624C779.031 637.333 774.031 649 764.031 659Z" fill="white"/>
</svg>
