<svg width="1200" height="1000" viewBox="0 0 1200 1000" fill="none" xmlns="http://www.w3.org/2000/svg">
<path d="M1023 850V238C1023 238 1013.75 125 901.5 125C789.25 125 780.5 238 780.5 238C780.5 238 780.5 604 780.5 727C780.5 850 724.5 850 619 850C571.067 850 602.5 850 506 850C410.5 850 410.5 727 410.5 727V238C410.5 238 388 125 292 125C196 125 174 238 174 238V850" stroke="white" stroke-width="20" stroke-linecap="round" stroke-linejoin="round" stroke-dasharray="40 40"/>
<circle cx="176" cy="854" r="40" fill="#1FA5F4"/>
<path d="M179.442 839.909V869H175.919V843.602H175.749L168.646 848.318V844.739L175.919 839.909H179.442Z" fill="white"/>
<circle cx="1023" cy="854" r="40" fill="#1FA5F4"/>
<path d="M1013.4 869V866.443L1023 855.932C1024.13 854.701 1025.06 853.631 1025.79 852.722C1026.52 851.803 1027.06 850.941 1027.41 850.136C1027.77 849.322 1027.95 848.47 1027.95 847.58C1027.95 846.557 1027.7 845.671 1027.21 844.923C1026.73 844.175 1026.06 843.598 1025.22 843.19C1024.38 842.783 1023.43 842.58 1022.38 842.58C1021.26 842.58 1020.29 842.812 1019.45 843.276C1018.63 843.73 1017.99 844.369 1017.54 845.193C1017.09 846.017 1016.87 846.983 1016.87 848.091H1013.52C1013.52 846.386 1013.91 844.89 1014.69 843.602C1015.48 842.314 1016.55 841.311 1017.9 840.591C1019.27 839.871 1020.8 839.511 1022.49 839.511C1024.2 839.511 1025.71 839.871 1027.02 840.591C1028.34 841.311 1029.37 842.281 1030.12 843.503C1030.87 844.724 1031.24 846.083 1031.24 847.58C1031.24 848.65 1031.05 849.696 1030.66 850.719C1030.28 851.732 1029.62 852.864 1028.67 854.114C1027.73 855.354 1026.43 856.869 1024.77 858.659L1018.23 865.648V865.875H1031.75V869H1013.4Z" fill="white"/>
</svg>
