<svg width="1523" height="1036" viewBox="0 0 1523 1036" fill="none" xmlns="http://www.w3.org/2000/svg">
<path d="M879.387 595.5V885.539C879.387 908.326 869.296 927.043 849.113 941.691C830.884 955.038 809.888 961.711 786.125 961.711C757.805 961.711 738.762 959.27 728.996 954.387C714.022 946.9 706.535 931.112 706.535 907.023V644.816C706.535 583.618 695.467 553.02 673.332 553.02C649.895 553.02 634.758 564.25 627.922 586.711C624.667 597.453 623.039 617.798 623.039 647.746V956.34H595.695V635.539C595.695 594.849 606.6 562.297 628.41 537.883C651.522 512.167 683.098 499.309 723.137 499.309C767.082 499.309 789.055 534.302 789.055 604.289V879.68C791.008 893.677 793.775 901.978 797.355 904.582C810.051 913.697 824.048 918.254 839.348 918.254C848.137 918.254 852.531 914.999 852.531 908.488V618.449C852.531 589.152 864.901 561.32 889.641 534.953C914.38 508.586 941.398 495.402 970.695 495.402C985.995 495.402 999.992 500.122 1012.69 509.562C1034.17 525.513 1044.91 552.368 1044.91 590.129V856.242C1044.91 888.143 1048.66 907.349 1056.14 913.859C1070.79 923.299 1083 928.02 1092.77 928.02C1113.92 928.02 1124.5 901.652 1124.5 848.918C1124.5 832.316 1123.85 806.112 1122.55 770.305C1121.57 736.125 1121.09 709.921 1121.09 691.691C1121.41 653.605 1122.71 624.146 1124.99 603.312C1128.25 575.643 1145.01 551.555 1175.29 531.047C1202.95 511.841 1231.44 502.076 1260.73 501.75C1288.73 501.424 1308.26 509.074 1319.33 524.699C1328.44 537.72 1333 558.879 1333 588.176V956.34H1242.67V628.703C1242.67 606.242 1242.51 593.384 1242.18 590.129C1239.58 564.738 1228.83 552.043 1209.95 552.043C1206.7 552.043 1203.12 552.368 1199.21 553.02C1168.94 557.902 1153.8 577.434 1153.8 611.613C1153.8 616.171 1153.96 623.007 1154.29 632.121C1154.61 641.561 1154.78 648.56 1154.78 653.117V820.109C1154.78 850.708 1154.13 869.914 1152.82 877.727C1143.06 935.995 1095.7 965.129 1010.73 965.129C985.995 965.129 970.044 960.083 962.883 949.992C957.349 942.18 954.582 924.602 954.582 897.258V631.145C954.582 575.48 942.212 547.648 917.473 547.648C892.082 547.648 879.387 563.599 879.387 595.5Z" fill="white"/>
<path d="M182 295C172.667 304.333 161.333 309 148 309C134.667 309 123.333 304.333 114 295C104.667 285 100 273.333 100 260C100 246 104.667 234.333 114 225C123.333 215.667 134.667 211 148 211C161.333 211 172.667 215.667 182 225C192 234.333 197 246 197 260C197 273.333 192 285 182 295ZM473.016 295C463.682 304.333 452.349 309 439.016 309C425.682 309 414.349 304.333 405.016 295C395.682 285 391.016 273.333 391.016 260C391.016 246 395.682 234.333 405.016 225C414.349 215.667 425.682 211 439.016 211C452.349 211 463.682 215.667 473.016 225C483.016 234.333 488.016 246 488.016 260C488.016 273.333 483.016 285 473.016 295ZM764.031 295C754.698 304.333 743.365 309 730.031 309C716.698 309 705.365 304.333 696.031 295C686.698 285 682.031 273.333 682.031 260C682.031 246 686.698 234.333 696.031 225C705.365 215.667 716.698 211 730.031 211C743.365 211 754.698 215.667 764.031 225C774.031 234.333 779.031 246 779.031 260C779.031 273.333 774.031 285 764.031 295Z" fill="white"/>
</svg>
